<svg width="819" height="720" viewBox="0 0 819 720" fill="none" xmlns="http://www.w3.org/2000/svg">
<g filter="url(#filter0_d_1_20595)">
<rect x="265" y="632" width="184" height="56" rx="28" fill="#151515" fill-opacity="0.65"/>
<path fill-rule="evenodd" clip-rule="evenodd" d="M298.556 661.599C299.169 661.599 299.655 662.102 299.781 662.702C300.291 665.116 302.436 666.932 305 666.932C307.943 666.932 310.333 664.541 310.333 661.599C310.333 658.656 307.943 656.265 305 656.265H302.334L302.322 659.317C302.321 659.673 301.89 659.85 301.639 659.599L297.919 655.876C297.399 655.355 297.399 654.51 297.921 653.99L301.636 650.28C301.888 650.029 302.318 650.207 302.318 650.563V653.598L305 653.599C309.417 653.599 313 657.182 313 661.599C313 666.016 309.417 669.599 305 669.599C301.112 669.599 297.87 666.822 297.15 663.145C296.984 662.302 297.697 661.599 298.556 661.599Z" fill="white"/>
<path d="M352.459 652.231C351.394 651.553 350 652.318 350 653.581V666.418C350 667.681 351.394 668.446 352.459 667.768L362.545 661.349C363.533 660.72 363.533 659.278 362.545 658.649L352.459 652.231Z" fill="white"/>
<path fill-rule="evenodd" clip-rule="evenodd" d="M415.639 651.999C414.756 651.999 414.039 652.715 414.039 653.599V665.399C414.039 666.283 414.756 666.999 415.639 666.999C416.523 666.999 417.239 666.283 417.239 665.399V653.599C417.239 652.715 416.523 651.999 415.639 651.999ZM401.533 654.234C401.533 652.759 403.203 651.903 404.401 652.765L411.72 658.032C412.724 658.754 412.724 660.248 411.72 660.971L404.401 666.238C403.203 667.099 401.533 666.244 401.533 664.768V654.234Z" fill="white"/>
</g>
<g filter="url(#filter1_d_1_20595)">
<g clip-path="url(#clip0_1_20595)">
<path d="M438 55C438 48.3726 443.373 43 450 43H695C701.627 43 707 48.3726 707 55V428C707 434.627 701.627 440 695 440H450C443.373 440 438 434.627 438 428V55Z" fill="white"/>
<path d="M476 69.2695V73.4001C476 73.9601 476 74.2401 476.109 74.4541C476.205 74.6422 476.358 74.7952 476.546 74.8911C476.76 75.0001 477.04 75.0001 477.6 75.0001H481.731M476 84H470M478 80H470M482 76.9882V84.2C482 85.8802 482 86.7202 481.673 87.362C481.385 87.9265 480.926 88.3854 480.362 88.673C479.72 89 478.88 89 477.2 89H470.8C469.12 89 468.28 89 467.638 88.673C467.074 88.3854 466.615 87.9265 466.327 87.362C466 86.7202 466 85.8802 466 84.2V73.8C466 72.1198 466 71.2798 466.327 70.638C466.615 70.0735 467.074 69.6146 467.638 69.327C468.28 69 469.12 69 470.8 69H474.012C474.746 69 475.112 69 475.458 69.0829C475.764 69.1564 476.056 69.2776 476.325 69.4421C476.628 69.6276 476.887 69.887 477.406 70.4059L480.594 73.5941C481.113 74.113 481.372 74.3724 481.558 74.6751C481.722 74.9436 481.844 75.2362 481.917 75.5423C482 75.8876 482 76.2545 482 76.9882Z" stroke="#101828" stroke-width="2" stroke-linecap="round" stroke-linejoin="round"/>
<path d="M503.792 74.436V76.47H500.444V87H497.924V76.47H494.576V74.436H503.792ZM514.901 81.798C514.901 82.158 514.877 82.482 514.829 82.77H507.539C507.599 83.49 507.851 84.054 508.295 84.462C508.739 84.87 509.285 85.074 509.933 85.074C510.869 85.074 511.535 84.672 511.931 83.868H514.649C514.361 84.828 513.809 85.62 512.993 86.244C512.177 86.856 511.175 87.162 509.987 87.162C509.027 87.162 508.163 86.952 507.395 86.532C506.639 86.1 506.045 85.494 505.613 84.714C505.193 83.934 504.983 83.034 504.983 82.014C504.983 80.982 505.193 80.076 505.613 79.296C506.033 78.516 506.621 77.916 507.377 77.496C508.133 77.076 509.003 76.866 509.987 76.866C510.935 76.866 511.781 77.07 512.525 77.478C513.281 77.886 513.863 78.468 514.271 79.224C514.691 79.968 514.901 80.826 514.901 81.798ZM512.291 81.078C512.279 80.43 512.045 79.914 511.589 79.53C511.133 79.134 510.575 78.936 509.915 78.936C509.291 78.936 508.763 79.128 508.331 79.512C507.911 79.884 507.653 80.406 507.557 81.078H512.291ZM522.248 87L520.196 83.904L518.378 87H515.678L518.936 81.996L515.642 77.028H518.486L520.52 80.106L522.356 77.028H525.056L521.78 81.996L525.092 87H522.248ZM529.395 79.098V83.922C529.395 84.258 529.473 84.504 529.629 84.66C529.797 84.804 530.073 84.876 530.457 84.876H531.627V87H530.043C527.919 87 526.857 85.968 526.857 83.904V79.098H525.669V77.028H526.857V74.562H529.395V77.028H531.627V79.098H529.395ZM542.084 90.546C540.92 89.418 540.014 87.978 539.366 86.226C538.73 84.474 538.412 82.596 538.412 80.592C538.412 78.54 538.748 76.614 539.42 74.814C540.092 73.002 541.07 71.52 542.354 70.368H544.892V70.602C543.572 71.862 542.564 73.374 541.868 75.138C541.184 76.902 540.842 78.72 540.842 80.592C540.842 82.416 541.166 84.18 541.814 85.884C542.474 87.576 543.41 89.046 544.622 90.294V90.546H542.084ZM546.969 84.156C548.121 83.196 549.039 82.398 549.723 81.762C550.407 81.114 550.977 80.442 551.433 79.746C551.889 79.05 552.117 78.366 552.117 77.694C552.117 77.082 551.973 76.602 551.685 76.254C551.397 75.906 550.953 75.732 550.353 75.732C549.753 75.732 549.291 75.936 548.967 76.344C548.643 76.74 548.475 77.286 548.463 77.982H546.015C546.063 76.542 546.489 75.45 547.293 74.706C548.109 73.962 549.141 73.59 550.389 73.59C551.757 73.59 552.807 73.956 553.539 74.688C554.271 75.408 554.637 76.362 554.637 77.55C554.637 78.486 554.385 79.38 553.881 80.232C553.377 81.084 552.801 81.828 552.153 82.464C551.505 83.088 550.659 83.844 549.615 84.732H554.925V86.82H546.033V84.948L546.969 84.156ZM556.153 90.546V90.294C557.365 89.046 558.295 87.576 558.943 85.884C559.603 84.18 559.933 82.416 559.933 80.592C559.933 78.72 559.585 76.902 558.889 75.138C558.205 73.374 557.203 71.862 555.883 70.602V70.368H558.421C559.705 71.52 560.683 73.002 561.355 74.814C562.027 76.614 562.363 78.54 562.363 80.592C562.363 82.596 562.039 84.474 561.391 86.226C560.755 87.978 559.855 89.418 558.691 90.546H556.153Z" fill="#101828"/>
<path d="M666.09 78C666.325 77.3317 666.789 76.7681 667.4 76.4091C668.011 76.0502 668.729 75.9189 669.427 76.0387C670.125 76.1585 670.759 76.5215 671.215 77.0635C671.671 77.6055 671.921 78.2915 671.92 79C671.92 81 668.92 82 668.92 82M669 86H669.01M679 81C679 86.5228 674.523 91 669 91C663.477 91 659 86.5228 659 81C659 75.4772 663.477 71 669 71C674.523 71 679 75.4772 679 81Z" stroke="#98A2B3" stroke-width="2" stroke-linecap="round" stroke-linejoin="round"/>
<path d="M464.352 241.278V244.54H467.908V245.59H464.352V248.95H468.328V250H463.078V240.228H468.328V241.278H464.352ZM473.994 242.188C474.927 242.188 475.683 242.473 476.262 243.042C476.84 243.602 477.13 244.414 477.13 245.478V250H475.87V245.66C475.87 244.895 475.678 244.311 475.296 243.91C474.913 243.499 474.39 243.294 473.728 243.294C473.056 243.294 472.519 243.504 472.118 243.924C471.726 244.344 471.53 244.955 471.53 245.758V250H470.256V242.328H471.53V243.42C471.782 243.028 472.122 242.725 472.552 242.51C472.99 242.295 473.471 242.188 473.994 242.188ZM480.765 243.378V247.9C480.765 248.273 480.844 248.539 481.003 248.698C481.161 248.847 481.437 248.922 481.829 248.922H482.767V250H481.619C480.909 250 480.377 249.837 480.023 249.51C479.668 249.183 479.491 248.647 479.491 247.9V243.378H478.497V242.328H479.491V240.396H480.765V242.328H482.767V243.378H480.765ZM491.31 245.87C491.31 246.113 491.296 246.369 491.268 246.64H485.136C485.183 247.396 485.44 247.989 485.906 248.418C486.382 248.838 486.956 249.048 487.628 249.048C488.179 249.048 488.636 248.922 489 248.67C489.374 248.409 489.635 248.063 489.784 247.634H491.156C490.951 248.371 490.54 248.973 489.924 249.44C489.308 249.897 488.543 250.126 487.628 250.126C486.9 250.126 486.247 249.963 485.668 249.636C485.099 249.309 484.651 248.847 484.324 248.25C483.998 247.643 483.834 246.943 483.834 246.15C483.834 245.357 483.993 244.661 484.31 244.064C484.628 243.467 485.071 243.009 485.64 242.692C486.219 242.365 486.882 242.202 487.628 242.202C488.356 242.202 489 242.361 489.56 242.678C490.12 242.995 490.55 243.434 490.848 243.994C491.156 244.545 491.31 245.17 491.31 245.87ZM489.994 245.604C489.994 245.119 489.887 244.703 489.672 244.358C489.458 244.003 489.164 243.737 488.79 243.56C488.426 243.373 488.02 243.28 487.572 243.28C486.928 243.28 486.378 243.485 485.92 243.896C485.472 244.307 485.216 244.876 485.15 245.604H489.994ZM494.266 243.574C494.49 243.135 494.807 242.795 495.218 242.552C495.638 242.309 496.147 242.188 496.744 242.188V243.504H496.408C494.98 243.504 494.266 244.279 494.266 245.828V250H492.992V242.328H494.266V243.574ZM508.555 242.328L503.935 253.612H502.619L504.131 249.916L501.037 242.328H502.451L504.859 248.544L507.239 242.328H508.555ZM513.182 250.126C512.463 250.126 511.81 249.963 511.222 249.636C510.643 249.309 510.186 248.847 509.85 248.25C509.523 247.643 509.36 246.943 509.36 246.15C509.36 245.366 509.528 244.675 509.864 244.078C510.209 243.471 510.676 243.009 511.264 242.692C511.852 242.365 512.51 242.202 513.238 242.202C513.966 242.202 514.624 242.365 515.212 242.692C515.8 243.009 516.262 243.467 516.598 244.064C516.943 244.661 517.116 245.357 517.116 246.15C517.116 246.943 516.938 247.643 516.584 248.25C516.238 248.847 515.767 249.309 515.17 249.636C514.572 249.963 513.91 250.126 513.182 250.126ZM513.182 249.006C513.639 249.006 514.068 248.899 514.47 248.684C514.871 248.469 515.193 248.147 515.436 247.718C515.688 247.289 515.814 246.766 515.814 246.15C515.814 245.534 515.692 245.011 515.45 244.582C515.207 244.153 514.89 243.835 514.498 243.63C514.106 243.415 513.681 243.308 513.224 243.308C512.757 243.308 512.328 243.415 511.936 243.63C511.553 243.835 511.245 244.153 511.012 244.582C510.778 245.011 510.662 245.534 510.662 246.15C510.662 246.775 510.774 247.303 510.998 247.732C511.231 248.161 511.539 248.483 511.922 248.698C512.304 248.903 512.724 249.006 513.182 249.006ZM525.595 242.328V250H524.321V248.866C524.078 249.258 523.738 249.566 523.299 249.79C522.87 250.005 522.394 250.112 521.871 250.112C521.274 250.112 520.737 249.991 520.261 249.748C519.785 249.496 519.407 249.123 519.127 248.628C518.856 248.133 518.721 247.531 518.721 246.822V242.328H519.981V246.654C519.981 247.41 520.172 247.993 520.555 248.404C520.938 248.805 521.46 249.006 522.123 249.006C522.804 249.006 523.341 248.796 523.733 248.376C524.125 247.956 524.321 247.345 524.321 246.542V242.328H525.595ZM529.02 243.574C529.244 243.135 529.561 242.795 529.972 242.552C530.392 242.309 530.901 242.188 531.498 242.188V243.504H531.162C529.734 243.504 529.02 244.279 529.02 245.828V250H527.746V242.328H529.02V243.574ZM538.255 243.378V247.9C538.255 248.273 538.334 248.539 538.493 248.698C538.652 248.847 538.927 248.922 539.319 248.922H540.257V250H539.109C538.4 250 537.868 249.837 537.513 249.51C537.158 249.183 536.981 248.647 536.981 247.9V243.378H535.987V242.328H536.981V240.396H538.255V242.328H540.257V243.378H538.255ZM548.801 245.87C548.801 246.113 548.787 246.369 548.759 246.64H542.627C542.673 247.396 542.93 247.989 543.397 248.418C543.873 248.838 544.447 249.048 545.119 249.048C545.669 249.048 546.127 248.922 546.491 248.67C546.864 248.409 547.125 248.063 547.275 247.634H548.647C548.441 248.371 548.031 248.973 547.415 249.44C546.799 249.897 546.033 250.126 545.119 250.126C544.391 250.126 543.737 249.963 543.159 249.636C542.589 249.309 542.141 248.847 541.815 248.25C541.488 247.643 541.325 246.943 541.325 246.15C541.325 245.357 541.483 244.661 541.801 244.064C542.118 243.467 542.561 243.009 543.131 242.692C543.709 242.365 544.372 242.202 545.119 242.202C545.847 242.202 546.491 242.361 547.051 242.678C547.611 242.995 548.04 243.434 548.339 243.994C548.647 244.545 548.801 245.17 548.801 245.87ZM547.485 245.604C547.485 245.119 547.377 244.703 547.163 244.358C546.948 244.003 546.654 243.737 546.281 243.56C545.917 243.373 545.511 243.28 545.063 243.28C544.419 243.28 543.868 243.485 543.411 243.896C542.963 244.307 542.706 244.876 542.641 245.604H547.485ZM554.486 250L552.666 247.144L550.916 250H549.586L552.064 246.192L549.586 242.328H551.028L552.848 245.17L554.584 242.328H555.914L553.45 246.122L555.928 250H554.486ZM558.736 243.378V247.9C558.736 248.273 558.815 248.539 558.974 248.698C559.132 248.847 559.408 248.922 559.8 248.922H560.738V250H559.59C558.88 250 558.348 249.837 557.994 249.51C557.639 249.183 557.462 248.647 557.462 247.9V243.378H556.468V242.328H557.462V240.396H558.736V242.328H560.738V243.378H558.736ZM567.568 243.378V247.9C567.568 248.273 567.647 248.539 567.806 248.698C567.964 248.847 568.24 248.922 568.632 248.922H569.57V250H568.422C567.712 250 567.18 249.837 566.826 249.51C566.471 249.183 566.294 248.647 566.294 247.9V243.378H565.3V242.328H566.294V240.396H567.568V242.328H569.57V243.378H567.568ZM574.459 250.126C573.74 250.126 573.087 249.963 572.499 249.636C571.92 249.309 571.463 248.847 571.127 248.25C570.8 247.643 570.637 246.943 570.637 246.15C570.637 245.366 570.805 244.675 571.141 244.078C571.486 243.471 571.953 243.009 572.541 242.692C573.129 242.365 573.787 242.202 574.515 242.202C575.243 242.202 575.901 242.365 576.489 242.692C577.077 243.009 577.539 243.467 577.875 244.064C578.22 244.661 578.393 245.357 578.393 246.15C578.393 246.943 578.216 247.643 577.861 248.25C577.516 248.847 577.044 249.309 576.447 249.636C575.85 249.963 575.187 250.126 574.459 250.126ZM574.459 249.006C574.916 249.006 575.346 248.899 575.747 248.684C576.148 248.469 576.47 248.147 576.713 247.718C576.965 247.289 577.091 246.766 577.091 246.15C577.091 245.534 576.97 245.011 576.727 244.582C576.484 244.153 576.167 243.835 575.775 243.63C575.383 243.415 574.958 243.308 574.501 243.308C574.034 243.308 573.605 243.415 573.213 243.63C572.83 243.835 572.522 244.153 572.289 244.582C572.056 245.011 571.939 245.534 571.939 246.15C571.939 246.775 572.051 247.303 572.275 247.732C572.508 248.161 572.816 248.483 573.199 248.698C573.582 248.903 574.002 249.006 574.459 249.006ZM586.517 250.126C585.929 250.126 585.401 250.028 584.935 249.832C584.468 249.627 584.099 249.347 583.829 248.992C583.558 248.628 583.409 248.213 583.381 247.746H584.697C584.734 248.129 584.911 248.441 585.229 248.684C585.555 248.927 585.98 249.048 586.503 249.048C586.988 249.048 587.371 248.941 587.651 248.726C587.931 248.511 588.071 248.241 588.071 247.914C588.071 247.578 587.921 247.331 587.623 247.172C587.324 247.004 586.862 246.841 586.237 246.682C585.667 246.533 585.201 246.383 584.837 246.234C584.482 246.075 584.174 245.847 583.913 245.548C583.661 245.24 583.535 244.839 583.535 244.344C583.535 243.952 583.651 243.593 583.885 243.266C584.118 242.939 584.449 242.683 584.879 242.496C585.308 242.3 585.798 242.202 586.349 242.202C587.198 242.202 587.884 242.417 588.407 242.846C588.929 243.275 589.209 243.863 589.247 244.61H587.973C587.945 244.209 587.781 243.887 587.483 243.644C587.193 243.401 586.801 243.28 586.307 243.28C585.849 243.28 585.485 243.378 585.215 243.574C584.944 243.77 584.809 244.027 584.809 244.344C584.809 244.596 584.888 244.806 585.047 244.974C585.215 245.133 585.42 245.263 585.663 245.366C585.915 245.459 586.26 245.567 586.699 245.688C587.249 245.837 587.697 245.987 588.043 246.136C588.388 246.276 588.682 246.491 588.925 246.78C589.177 247.069 589.307 247.447 589.317 247.914C589.317 248.334 589.2 248.712 588.967 249.048C588.733 249.384 588.402 249.65 587.973 249.846C587.553 250.033 587.067 250.126 586.517 250.126ZM592.669 243.378V247.9C592.669 248.273 592.748 248.539 592.907 248.698C593.066 248.847 593.341 248.922 593.733 248.922H594.671V250H593.523C592.814 250 592.282 249.837 591.927 249.51C591.572 249.183 591.395 248.647 591.395 247.9V243.378H590.401V242.328H591.395V240.396H592.669V242.328H594.671V243.378H592.669ZM595.739 246.136C595.739 245.352 595.897 244.666 596.215 244.078C596.532 243.481 596.966 243.019 597.517 242.692C598.077 242.365 598.697 242.202 599.379 242.202C600.051 242.202 600.634 242.347 601.129 242.636C601.623 242.925 601.992 243.289 602.235 243.728V242.328H603.523V250H602.235V248.572C601.983 249.02 601.605 249.393 601.101 249.692C600.606 249.981 600.027 250.126 599.365 250.126C598.683 250.126 598.067 249.958 597.517 249.622C596.966 249.286 596.532 248.815 596.215 248.208C595.897 247.601 595.739 246.911 595.739 246.136ZM602.235 246.15C602.235 245.571 602.118 245.067 601.885 244.638C601.651 244.209 601.334 243.882 600.933 243.658C600.541 243.425 600.107 243.308 599.631 243.308C599.155 243.308 598.721 243.42 598.329 243.644C597.937 243.868 597.624 244.195 597.391 244.624C597.157 245.053 597.041 245.557 597.041 246.136C597.041 246.724 597.157 247.237 597.391 247.676C597.624 248.105 597.937 248.437 598.329 248.67C598.721 248.894 599.155 249.006 599.631 249.006C600.107 249.006 600.541 248.894 600.933 248.67C601.334 248.437 601.651 248.105 601.885 247.676C602.118 247.237 602.235 246.729 602.235 246.15ZM606.95 243.574C607.174 243.135 607.491 242.795 607.902 242.552C608.322 242.309 608.83 242.188 609.428 242.188V243.504H609.092C607.664 243.504 606.95 244.279 606.95 245.828V250H605.676V242.328H606.95V243.574ZM612.452 243.378V247.9C612.452 248.273 612.532 248.539 612.69 248.698C612.849 248.847 613.124 248.922 613.516 248.922H614.454V250H613.306C612.597 250 612.065 249.837 611.71 249.51C611.356 249.183 611.178 248.647 611.178 247.9V243.378H610.184V242.328H611.178V240.396H612.452V242.328H614.454V243.378H612.452Z" fill="#475467"/>
<path d="M464.646 121.558V124.414H468.006V125.716H464.646V128.698H468.426V130H463.05V120.256H468.426V121.558H464.646ZM474.284 122.16C474.89 122.16 475.432 122.286 475.908 122.538C476.393 122.79 476.771 123.163 477.042 123.658C477.312 124.153 477.448 124.75 477.448 125.45V130H475.866V125.688C475.866 124.997 475.693 124.47 475.348 124.106C475.002 123.733 474.531 123.546 473.934 123.546C473.336 123.546 472.86 123.733 472.506 124.106C472.16 124.47 471.988 124.997 471.988 125.688V130H470.392V122.286H471.988V123.168C472.249 122.851 472.58 122.603 472.982 122.426C473.392 122.249 473.826 122.16 474.284 122.16ZM481.346 123.588V127.858C481.346 128.147 481.411 128.357 481.542 128.488C481.682 128.609 481.915 128.67 482.242 128.67H483.222V130H481.962C481.243 130 480.692 129.832 480.31 129.496C479.927 129.16 479.736 128.614 479.736 127.858V123.588H478.826V122.286H479.736V120.368H481.346V122.286H483.222V123.588H481.346ZM491.763 125.954C491.763 126.243 491.744 126.505 491.707 126.738H485.813C485.859 127.354 486.088 127.849 486.499 128.222C486.909 128.595 487.413 128.782 488.011 128.782C488.869 128.782 489.476 128.423 489.831 127.704H491.553C491.319 128.413 490.895 128.997 490.279 129.454C489.672 129.902 488.916 130.126 488.011 130.126C487.273 130.126 486.611 129.963 486.023 129.636C485.444 129.3 484.987 128.833 484.651 128.236C484.324 127.629 484.161 126.929 484.161 126.136C484.161 125.343 484.319 124.647 484.637 124.05C484.963 123.443 485.416 122.977 485.995 122.65C486.583 122.323 487.255 122.16 488.011 122.16C488.739 122.16 489.387 122.319 489.957 122.636C490.526 122.953 490.969 123.401 491.287 123.98C491.604 124.549 491.763 125.207 491.763 125.954ZM490.097 125.45C490.087 124.862 489.877 124.391 489.467 124.036C489.056 123.681 488.547 123.504 487.941 123.504C487.39 123.504 486.919 123.681 486.527 124.036C486.135 124.381 485.901 124.853 485.827 125.45H490.097ZM494.929 123.406C495.163 123.014 495.471 122.711 495.853 122.496C496.245 122.272 496.707 122.16 497.239 122.16V123.812H496.833C496.208 123.812 495.732 123.971 495.405 124.288C495.088 124.605 494.929 125.156 494.929 125.94V130H493.333V122.286H494.929V123.406ZM509.287 122.286L504.555 133.626H502.903L504.471 129.874L501.433 122.286H503.211L505.381 128.166L507.635 122.286H509.287ZM513.837 130.126C513.109 130.126 512.451 129.963 511.863 129.636C511.275 129.3 510.813 128.833 510.477 128.236C510.141 127.629 509.973 126.929 509.973 126.136C509.973 125.352 510.146 124.657 510.491 124.05C510.837 123.443 511.308 122.977 511.905 122.65C512.503 122.323 513.17 122.16 513.907 122.16C514.645 122.16 515.312 122.323 515.909 122.65C516.507 122.977 516.978 123.443 517.323 124.05C517.669 124.657 517.841 125.352 517.841 126.136C517.841 126.92 517.664 127.615 517.309 128.222C516.955 128.829 516.469 129.3 515.853 129.636C515.247 129.963 514.575 130.126 513.837 130.126ZM513.837 128.74C514.248 128.74 514.631 128.642 514.985 128.446C515.349 128.25 515.643 127.956 515.867 127.564C516.091 127.172 516.203 126.696 516.203 126.136C516.203 125.576 516.096 125.105 515.881 124.722C515.667 124.33 515.382 124.036 515.027 123.84C514.673 123.644 514.29 123.546 513.879 123.546C513.469 123.546 513.086 123.644 512.731 123.84C512.386 124.036 512.111 124.33 511.905 124.722C511.7 125.105 511.597 125.576 511.597 126.136C511.597 126.967 511.807 127.611 512.227 128.068C512.657 128.516 513.193 128.74 513.837 128.74ZM526.405 122.286V130H524.809V129.09C524.557 129.407 524.226 129.659 523.815 129.846C523.414 130.023 522.984 130.112 522.527 130.112C521.92 130.112 521.374 129.986 520.889 129.734C520.413 129.482 520.035 129.109 519.755 128.614C519.484 128.119 519.349 127.522 519.349 126.822V122.286H520.931V126.584C520.931 127.275 521.104 127.807 521.449 128.18C521.794 128.544 522.266 128.726 522.863 128.726C523.46 128.726 523.932 128.544 524.277 128.18C524.632 127.807 524.809 127.275 524.809 126.584V122.286H526.405ZM530.107 123.406C530.34 123.014 530.648 122.711 531.031 122.496C531.423 122.272 531.885 122.16 532.417 122.16V123.812H532.011C531.386 123.812 530.91 123.971 530.583 124.288C530.266 124.605 530.107 125.156 530.107 125.94V130H528.511V122.286H530.107V123.406ZM543.807 120.27V121.572H541.217V130H539.621V121.572H537.017V120.27H543.807ZM552.493 125.954C552.493 126.243 552.474 126.505 552.437 126.738H546.543C546.59 127.354 546.818 127.849 547.229 128.222C547.64 128.595 548.144 128.782 548.741 128.782C549.6 128.782 550.206 128.423 550.561 127.704H552.283C552.05 128.413 551.625 128.997 551.009 129.454C550.402 129.902 549.646 130.126 548.741 130.126C548.004 130.126 547.341 129.963 546.753 129.636C546.174 129.3 545.717 128.833 545.381 128.236C545.054 127.629 544.891 126.929 544.891 126.136C544.891 125.343 545.05 124.647 545.367 124.05C545.694 123.443 546.146 122.977 546.725 122.65C547.313 122.323 547.985 122.16 548.741 122.16C549.469 122.16 550.118 122.319 550.687 122.636C551.256 122.953 551.7 123.401 552.017 123.98C552.334 124.549 552.493 125.207 552.493 125.954ZM550.827 125.45C550.818 124.862 550.608 124.391 550.197 124.036C549.786 123.681 549.278 123.504 548.671 123.504C548.12 123.504 547.649 123.681 547.257 124.036C546.865 124.381 546.632 124.853 546.557 125.45H550.827ZM557.368 126.094L559.86 130H558.054L556.388 127.382L554.82 130H553.154L555.646 126.206L553.154 122.286H554.96L556.626 124.904L558.194 122.286H559.86L557.368 126.094ZM562.912 123.588V127.858C562.912 128.147 562.977 128.357 563.108 128.488C563.248 128.609 563.481 128.67 563.808 128.67H564.788V130H563.528C562.809 130 562.259 129.832 561.876 129.496C561.493 129.16 561.302 128.614 561.302 127.858V123.588H560.392V122.286H561.302V120.368H562.912V122.286H564.788V123.588H562.912Z" fill="#344054"/>
<g clip-path="url(#clip1_1_20595)">
<path d="M574.06 123C574.217 122.554 574.526 122.179 574.933 121.939C575.341 121.7 575.819 121.613 576.285 121.692C576.75 121.772 577.173 122.014 577.477 122.376C577.781 122.737 577.947 123.194 577.947 123.667C577.947 125 575.947 125.667 575.947 125.667M576 128.333H576.007M582.667 125C582.667 128.682 579.682 131.667 576 131.667C572.318 131.667 569.333 128.682 569.333 125C569.333 121.318 572.318 118.333 576 118.333C579.682 118.333 582.667 121.318 582.667 125Z" stroke="#98A2B3" stroke-width="1.33333" stroke-linecap="round" stroke-linejoin="round"/>
</g>
<g filter="url(#filter2_d_1_20595)">
<path d="M462 149C462 144.582 465.582 141 470 141H675C679.418 141 683 144.582 683 149V221C683 225.418 679.418 229 675 229H470C465.582 229 462 225.418 462 221V149Z" fill="white"/>
<path d="M462.5 149C462.5 144.858 465.858 141.5 470 141.5H675C679.142 141.5 682.5 144.858 682.5 149V221C682.5 225.142 679.142 228.5 675 228.5H470C465.858 228.5 462.5 225.142 462.5 221V149Z" stroke="#D0D5DD"/>
<path d="M478.688 159.848V171H477.232V159.848H478.688ZM483.618 159.752L480.21 161.576V160.488L483.618 158.488V159.752ZM495.667 162.072C496.349 162.072 496.957 162.216 497.491 162.504C498.024 162.781 498.445 163.203 498.755 163.768C499.064 164.333 499.219 165.021 499.219 165.832V171H497.779V166.04C497.779 165.165 497.56 164.499 497.123 164.04C496.696 163.571 496.115 163.336 495.379 163.336C494.621 163.336 494.019 163.581 493.571 164.072C493.123 164.552 492.899 165.251 492.899 166.168V171H491.459V166.04C491.459 165.165 491.24 164.499 490.803 164.04C490.376 163.571 489.795 163.336 489.059 163.336C488.301 163.336 487.699 163.581 487.251 164.072C486.803 164.552 486.579 165.251 486.579 166.168V171H485.123V162.232H486.579V163.496C486.867 163.037 487.251 162.685 487.731 162.44C488.221 162.195 488.76 162.072 489.347 162.072C490.083 162.072 490.733 162.237 491.299 162.568C491.864 162.899 492.285 163.384 492.563 164.024C492.808 163.405 493.213 162.925 493.779 162.584C494.344 162.243 494.973 162.072 495.667 162.072ZM510.225 162.072C510.886 162.072 511.483 162.216 512.017 162.504C512.55 162.781 512.966 163.203 513.265 163.768C513.574 164.333 513.729 165.021 513.729 165.832V171H512.289V166.04C512.289 165.165 512.07 164.499 511.633 164.04C511.195 163.571 510.598 163.336 509.841 163.336C509.073 163.336 508.459 163.576 508.001 164.056C507.553 164.536 507.329 165.235 507.329 166.152V171H505.873V159.16H507.329V163.48C507.617 163.032 508.011 162.685 508.513 162.44C509.025 162.195 509.595 162.072 510.225 162.072ZM524.107 166.28C524.107 166.557 524.091 166.851 524.059 167.16H517.051C517.104 168.024 517.398 168.701 517.931 169.192C518.475 169.672 519.131 169.912 519.899 169.912C520.528 169.912 521.051 169.768 521.467 169.48C521.894 169.181 522.192 168.787 522.363 168.296H523.931C523.696 169.139 523.227 169.827 522.523 170.36C521.819 170.883 520.944 171.144 519.899 171.144C519.067 171.144 518.32 170.957 517.659 170.584C517.008 170.211 516.496 169.683 516.123 169C515.75 168.307 515.563 167.507 515.563 166.6C515.563 165.693 515.744 164.899 516.107 164.216C516.47 163.533 516.976 163.011 517.627 162.648C518.288 162.275 519.046 162.088 519.899 162.088C520.731 162.088 521.467 162.269 522.107 162.632C522.747 162.995 523.238 163.496 523.579 164.136C523.931 164.765 524.107 165.48 524.107 166.28ZM522.603 165.976C522.603 165.421 522.48 164.947 522.235 164.552C521.99 164.147 521.654 163.843 521.227 163.64C520.811 163.427 520.347 163.32 519.835 163.32C519.099 163.32 518.47 163.555 517.947 164.024C517.435 164.493 517.142 165.144 517.067 165.976H522.603ZM527.485 163.656C527.741 163.155 528.104 162.765 528.573 162.488C529.053 162.211 529.634 162.072 530.317 162.072V163.576H529.933C528.301 163.576 527.485 164.461 527.485 166.232V171H526.029V162.232H527.485V163.656ZM539.998 166.28C539.998 166.557 539.982 166.851 539.95 167.16H532.942C532.995 168.024 533.288 168.701 533.822 169.192C534.366 169.672 535.022 169.912 535.79 169.912C536.419 169.912 536.942 169.768 537.358 169.48C537.784 169.181 538.083 168.787 538.254 168.296H539.822C539.587 169.139 539.118 169.827 538.414 170.36C537.71 170.883 536.835 171.144 535.79 171.144C534.958 171.144 534.211 170.957 533.55 170.584C532.899 170.211 532.387 169.683 532.014 169C531.64 168.307 531.454 167.507 531.454 166.6C531.454 165.693 531.635 164.899 531.998 164.216C532.36 163.533 532.867 163.011 533.518 162.648C534.179 162.275 534.936 162.088 535.79 162.088C536.622 162.088 537.358 162.269 537.998 162.632C538.638 162.995 539.128 163.496 539.47 164.136C539.822 164.765 539.998 165.48 539.998 166.28ZM538.494 165.976C538.494 165.421 538.371 164.947 538.126 164.552C537.88 164.147 537.544 163.843 537.118 163.64C536.702 163.427 536.238 163.32 535.726 163.32C534.99 163.32 534.36 163.555 533.838 164.024C533.326 164.493 533.032 165.144 532.958 165.976H538.494ZM543.808 159.848L543.632 167.848H542.416L542.24 159.848H543.808ZM543.088 171.096C542.81 171.096 542.576 171 542.384 170.808C542.192 170.616 542.096 170.381 542.096 170.104C542.096 169.827 542.192 169.592 542.384 169.4C542.576 169.208 542.81 169.112 543.088 169.112C543.354 169.112 543.578 169.208 543.76 169.4C543.952 169.592 544.048 169.827 544.048 170.104C544.048 170.381 543.952 170.616 543.76 170.808C543.578 171 543.354 171.096 543.088 171.096Z" fill="#667085"/>
<path d="M675 213L667 221" stroke="#D0D5DD" stroke-linecap="round"/>
<path d="M676 218L672 222" stroke="#D0D5DD" stroke-linecap="round"/>
</g>
<path fill-rule="evenodd" clip-rule="evenodd" d="M707 288H438V287H707V288Z" fill="#E4E7EC"/>
<mask id="path-22-inside-1_1_20595" fill="white">
<path d="M438 312H616C627.046 312 636 320.954 636 332C636 343.046 627.046 352 616 352H438V312Z"/>
</mask>
<path d="M438 312H616C627.046 312 636 320.954 636 332C636 343.046 627.046 352 616 352H438V312Z" fill="white"/>
<path d="M438 311H616C627.598 311 637 320.402 637 332H635C635 321.507 626.493 313 616 313H438V311ZM637 332C637 343.598 627.598 353 616 353H438V351H616C626.493 351 635 342.493 635 332H637ZM438 352V312V352ZM616 311C627.598 311 637 320.402 637 332C637 343.598 627.598 353 616 353V351C626.493 351 635 342.493 635 332C635 321.507 626.493 313 616 313V311Z" fill="#E4E7EC" mask="url(#path-22-inside-1_1_20595)"/>
<path d="M452 332C452 327.582 455.582 324 460 324C464.418 324 468 327.582 468 332C468 336.418 464.418 340 460 340C455.582 340 452 336.418 452 332Z" fill="#7F56D9"/>
<path d="M457 332C457 330.343 458.343 329 460 329C461.657 329 463 330.343 463 332C463 333.657 461.657 335 460 335C458.343 335 457 333.657 457 332Z" fill="white"/>
<path d="M480.958 335.138H477.066L476.422 337H474.364L477.878 327.214H480.16L483.674 337H481.602L480.958 335.138ZM480.426 333.57L479.012 329.482L477.598 333.57H480.426ZM484.483 333.094C484.483 332.31 484.637 331.615 484.945 331.008C485.263 330.401 485.692 329.935 486.233 329.608C486.775 329.281 487.377 329.118 488.039 329.118C488.543 329.118 489.024 329.23 489.481 329.454C489.939 329.669 490.303 329.958 490.573 330.322V326.64H492.561V337H490.573V335.852C490.331 336.235 489.99 336.543 489.551 336.776C489.113 337.009 488.604 337.126 488.025 337.126C487.372 337.126 486.775 336.958 486.233 336.622C485.692 336.286 485.263 335.815 484.945 335.208C484.637 334.592 484.483 333.887 484.483 333.094ZM490.587 333.122C490.587 332.646 490.494 332.24 490.307 331.904C490.121 331.559 489.869 331.297 489.551 331.12C489.234 330.933 488.893 330.84 488.529 330.84C488.165 330.84 487.829 330.929 487.521 331.106C487.213 331.283 486.961 331.545 486.765 331.89C486.579 332.226 486.485 332.627 486.485 333.094C486.485 333.561 486.579 333.971 486.765 334.326C486.961 334.671 487.213 334.937 487.521 335.124C487.839 335.311 488.175 335.404 488.529 335.404C488.893 335.404 489.234 335.315 489.551 335.138C489.869 334.951 490.121 334.69 490.307 334.354C490.494 334.009 490.587 333.598 490.587 333.122ZM493.972 333.094C493.972 332.31 494.126 331.615 494.434 331.008C494.751 330.401 495.18 329.935 495.722 329.608C496.263 329.281 496.865 329.118 497.528 329.118C498.032 329.118 498.512 329.23 498.97 329.454C499.427 329.669 499.791 329.958 500.062 330.322V326.64H502.05V337H500.062V335.852C499.819 336.235 499.478 336.543 499.04 336.776C498.601 337.009 498.092 337.126 497.514 337.126C496.86 337.126 496.263 336.958 495.722 336.622C495.18 336.286 494.751 335.815 494.434 335.208C494.126 334.592 493.972 333.887 493.972 333.094ZM500.076 333.122C500.076 332.646 499.982 332.24 499.796 331.904C499.609 331.559 499.357 331.297 499.04 331.12C498.722 330.933 498.382 330.84 498.018 330.84C497.654 330.84 497.318 330.929 497.01 331.106C496.702 331.283 496.45 331.545 496.254 331.89C496.067 332.226 495.974 332.627 495.974 333.094C495.974 333.561 496.067 333.971 496.254 334.326C496.45 334.671 496.702 334.937 497.01 335.124C497.327 335.311 497.663 335.404 498.018 335.404C498.382 335.404 498.722 335.315 499.04 335.138C499.357 334.951 499.609 334.69 499.796 334.354C499.982 334.009 500.076 333.598 500.076 333.122ZM508.294 328.32C507.949 328.32 507.659 328.213 507.426 327.998C507.202 327.774 507.09 327.499 507.09 327.172C507.09 326.845 507.202 326.575 507.426 326.36C507.659 326.136 507.949 326.024 508.294 326.024C508.639 326.024 508.924 326.136 509.148 326.36C509.381 326.575 509.498 326.845 509.498 327.172C509.498 327.499 509.381 327.774 509.148 327.998C508.924 328.213 508.639 328.32 508.294 328.32ZM509.26 329.244V337H507.3V329.244H509.26ZM515.494 329.132C516.418 329.132 517.165 329.426 517.734 330.014C518.304 330.593 518.588 331.405 518.588 332.45V337H516.628V332.716C516.628 332.1 516.474 331.629 516.166 331.302C515.858 330.966 515.438 330.798 514.906 330.798C514.365 330.798 513.936 330.966 513.618 331.302C513.31 331.629 513.156 332.1 513.156 332.716V337H511.196V329.244H513.156V330.21C513.418 329.874 513.749 329.613 514.15 329.426C514.561 329.23 515.009 329.132 515.494 329.132ZM522.412 330.364C522.664 330.009 523.01 329.715 523.448 329.482C523.896 329.239 524.405 329.118 524.974 329.118C525.637 329.118 526.234 329.281 526.766 329.608C527.308 329.935 527.732 330.401 528.04 331.008C528.358 331.605 528.516 332.301 528.516 333.094C528.516 333.887 528.358 334.592 528.04 335.208C527.732 335.815 527.308 336.286 526.766 336.622C526.234 336.958 525.637 337.126 524.974 337.126C524.405 337.126 523.901 337.009 523.462 336.776C523.033 336.543 522.683 336.249 522.412 335.894V340.696H520.452V329.244H522.412V330.364ZM526.514 333.094C526.514 332.627 526.416 332.226 526.22 331.89C526.034 331.545 525.782 331.283 525.464 331.106C525.156 330.929 524.82 330.84 524.456 330.84C524.102 330.84 523.766 330.933 523.448 331.12C523.14 331.297 522.888 331.559 522.692 331.904C522.506 332.249 522.412 332.655 522.412 333.122C522.412 333.589 522.506 333.995 522.692 334.34C522.888 334.685 523.14 334.951 523.448 335.138C523.766 335.315 524.102 335.404 524.456 335.404C524.82 335.404 525.156 335.311 525.464 335.124C525.782 334.937 526.034 334.671 526.22 334.326C526.416 333.981 526.514 333.57 526.514 333.094ZM537.263 329.244V337H535.289V336.02C535.037 336.356 534.705 336.622 534.295 336.818C533.893 337.005 533.455 337.098 532.979 337.098C532.372 337.098 531.835 336.972 531.369 336.72C530.902 336.459 530.533 336.081 530.263 335.586C530.001 335.082 529.871 334.485 529.871 333.794V329.244H531.831V333.514C531.831 334.13 531.985 334.606 532.293 334.942C532.601 335.269 533.021 335.432 533.553 335.432C534.094 335.432 534.519 335.269 534.827 334.942C535.135 334.606 535.289 334.13 535.289 333.514V329.244H537.263ZM541.478 330.854V334.606C541.478 334.867 541.539 335.059 541.66 335.18C541.791 335.292 542.006 335.348 542.304 335.348H543.214V337H541.982C540.33 337 539.504 336.197 539.504 334.592V330.854H538.58V329.244H539.504V327.326H541.478V329.244H543.214V330.854H541.478ZM547.456 333.122C547.456 332.319 547.619 331.619 547.946 331.022C548.273 330.415 548.725 329.949 549.304 329.622C549.883 329.286 550.545 329.118 551.292 329.118C552.253 329.118 553.047 329.361 553.672 329.846C554.307 330.322 554.731 330.994 554.946 331.862H552.832C552.72 331.526 552.529 331.265 552.258 331.078C551.997 330.882 551.67 330.784 551.278 330.784C550.718 330.784 550.275 330.989 549.948 331.4C549.621 331.801 549.458 332.375 549.458 333.122C549.458 333.859 549.621 334.433 549.948 334.844C550.275 335.245 550.718 335.446 551.278 335.446C552.071 335.446 552.589 335.091 552.832 334.382H554.946C554.731 335.222 554.307 335.889 553.672 336.384C553.037 336.879 552.244 337.126 551.292 337.126C550.545 337.126 549.883 336.963 549.304 336.636C548.725 336.3 548.273 335.833 547.946 335.236C547.619 334.629 547.456 333.925 547.456 333.122ZM559.826 337.126C559.079 337.126 558.407 336.963 557.81 336.636C557.213 336.3 556.741 335.829 556.396 335.222C556.06 334.615 555.892 333.915 555.892 333.122C555.892 332.329 556.065 331.629 556.41 331.022C556.765 330.415 557.245 329.949 557.852 329.622C558.459 329.286 559.135 329.118 559.882 329.118C560.629 329.118 561.305 329.286 561.912 329.622C562.519 329.949 562.995 330.415 563.34 331.022C563.695 331.629 563.872 332.329 563.872 333.122C563.872 333.915 563.69 334.615 563.326 335.222C562.971 335.829 562.486 336.3 561.87 336.636C561.263 336.963 560.582 337.126 559.826 337.126ZM559.826 335.418C560.181 335.418 560.512 335.334 560.82 335.166C561.137 334.989 561.389 334.727 561.576 334.382C561.763 334.037 561.856 333.617 561.856 333.122C561.856 332.385 561.66 331.82 561.268 331.428C560.885 331.027 560.414 330.826 559.854 330.826C559.294 330.826 558.823 331.027 558.44 331.428C558.067 331.82 557.88 332.385 557.88 333.122C557.88 333.859 558.062 334.429 558.426 334.83C558.799 335.222 559.266 335.418 559.826 335.418ZM569.608 329.132C570.532 329.132 571.278 329.426 571.848 330.014C572.417 330.593 572.702 331.405 572.702 332.45V337H570.742V332.716C570.742 332.1 570.588 331.629 570.28 331.302C569.972 330.966 569.552 330.798 569.02 330.798C568.478 330.798 568.049 330.966 567.732 331.302C567.424 331.629 567.27 332.1 567.27 332.716V337H565.31V329.244H567.27V330.21C567.531 329.874 567.862 329.613 568.264 329.426C568.674 329.23 569.122 329.132 569.608 329.132ZM578.864 329.132C579.788 329.132 580.534 329.426 581.104 330.014C581.673 330.593 581.958 331.405 581.958 332.45V337H579.998V332.716C579.998 332.1 579.844 331.629 579.536 331.302C579.228 330.966 578.808 330.798 578.276 330.798C577.734 330.798 577.305 330.966 576.988 331.302C576.68 331.629 576.526 332.1 576.526 332.716V337H574.566V329.244H576.526V330.21C576.787 329.874 577.118 329.613 577.52 329.426C577.93 329.23 578.378 329.132 578.864 329.132ZM591.031 332.954C591.031 333.234 591.013 333.486 590.975 333.71H585.305C585.352 334.27 585.548 334.709 585.893 335.026C586.239 335.343 586.663 335.502 587.167 335.502C587.895 335.502 588.413 335.189 588.721 334.564H590.835C590.611 335.311 590.182 335.927 589.547 336.412C588.913 336.888 588.133 337.126 587.209 337.126C586.463 337.126 585.791 336.963 585.193 336.636C584.605 336.3 584.143 335.829 583.807 335.222C583.481 334.615 583.317 333.915 583.317 333.122C583.317 332.319 583.481 331.615 583.807 331.008C584.134 330.401 584.591 329.935 585.179 329.608C585.767 329.281 586.444 329.118 587.209 329.118C587.947 329.118 588.605 329.277 589.183 329.594C589.771 329.911 590.224 330.364 590.541 330.952C590.868 331.531 591.031 332.198 591.031 332.954ZM589.001 332.394C588.992 331.89 588.81 331.489 588.455 331.19C588.101 330.882 587.667 330.728 587.153 330.728C586.668 330.728 586.257 330.877 585.921 331.176C585.595 331.465 585.394 331.871 585.319 332.394H589.001ZM591.958 333.122C591.958 332.319 592.121 331.619 592.448 331.022C592.775 330.415 593.227 329.949 593.806 329.622C594.385 329.286 595.047 329.118 595.794 329.118C596.755 329.118 597.549 329.361 598.174 329.846C598.809 330.322 599.233 330.994 599.448 331.862H597.334C597.222 331.526 597.031 331.265 596.76 331.078C596.499 330.882 596.172 330.784 595.78 330.784C595.22 330.784 594.777 330.989 594.45 331.4C594.123 331.801 593.96 332.375 593.96 333.122C593.96 333.859 594.123 334.433 594.45 334.844C594.777 335.245 595.22 335.446 595.78 335.446C596.573 335.446 597.091 335.091 597.334 334.382H599.448C599.233 335.222 598.809 335.889 598.174 336.384C597.539 336.879 596.746 337.126 595.794 337.126C595.047 337.126 594.385 336.963 593.806 336.636C593.227 336.3 592.775 335.833 592.448 335.236C592.121 334.629 591.958 333.925 591.958 333.122ZM603.166 330.854V334.606C603.166 334.867 603.227 335.059 603.348 335.18C603.479 335.292 603.693 335.348 603.992 335.348H604.902V337H603.67C602.018 337 601.192 336.197 601.192 334.592V330.854H600.268V329.244H601.192V327.326H603.166V329.244H604.902V330.854H603.166ZM609.756 337.126C609.009 337.126 608.337 336.963 607.74 336.636C607.142 336.3 606.671 335.829 606.326 335.222C605.99 334.615 605.822 333.915 605.822 333.122C605.822 332.329 605.994 331.629 606.34 331.022C606.694 330.415 607.175 329.949 607.782 329.622C608.388 329.286 609.065 329.118 609.812 329.118C610.558 329.118 611.235 329.286 611.842 329.622C612.448 329.949 612.924 330.415 613.27 331.022C613.624 331.629 613.802 332.329 613.802 333.122C613.802 333.915 613.62 334.615 613.256 335.222C612.901 335.829 612.416 336.3 611.8 336.636C611.193 336.963 610.512 337.126 609.756 337.126ZM609.756 335.418C610.11 335.418 610.442 335.334 610.75 335.166C611.067 334.989 611.319 334.727 611.506 334.382C611.692 334.037 611.786 333.617 611.786 333.122C611.786 332.385 611.59 331.82 611.198 331.428C610.815 331.027 610.344 330.826 609.784 330.826C609.224 330.826 608.752 331.027 608.37 331.428C607.996 331.82 607.81 332.385 607.81 333.122C607.81 333.859 607.992 334.429 608.356 334.83C608.729 335.222 609.196 335.418 609.756 335.418ZM617.199 330.448C617.451 330.037 617.778 329.715 618.179 329.482C618.59 329.249 619.057 329.132 619.579 329.132V331.19H619.061C618.445 331.19 617.979 331.335 617.661 331.624C617.353 331.913 617.199 332.417 617.199 333.136V337H615.239V329.244H617.199V330.448Z" fill="#475467"/>
<mask id="path-27-inside-2_1_20595" fill="white">
<path d="M605 396C605 384.954 613.954 376 625 376H707V416H625C613.954 416 605 407.046 605 396Z"/>
</mask>
<path d="M605 396C605 384.954 613.954 376 625 376H707V416H625C613.954 416 605 407.046 605 396Z" fill="white"/>
<path d="M604 396C604 384.402 613.402 375 625 375H707V377H625C614.507 377 606 385.507 606 396H604ZM707 417H625C613.402 417 604 407.598 604 396H606C606 406.493 614.507 415 625 415H707V417ZM625 417C613.402 417 604 407.598 604 396C604 384.402 613.402 375 625 375V377C614.507 377 606 385.507 606 396C606 406.493 614.507 415 625 415V417ZM707 376V416V376Z" fill="#D6BBFB" mask="url(#path-27-inside-2_1_20595)"/>
<path d="M626.502 401.098C625.587 401.098 624.747 400.883 623.982 400.454C623.217 400.025 622.61 399.432 622.162 398.676C621.714 397.911 621.49 397.047 621.49 396.086C621.49 395.134 621.714 394.28 622.162 393.524C622.61 392.759 623.217 392.161 623.982 391.732C624.747 391.303 625.587 391.088 626.502 391.088C627.426 391.088 628.266 391.303 629.022 391.732C629.787 392.161 630.389 392.759 630.828 393.524C631.276 394.28 631.5 395.134 631.5 396.086C631.5 397.047 631.276 397.911 630.828 398.676C630.389 399.432 629.787 400.025 629.022 400.454C628.257 400.883 627.417 401.098 626.502 401.098ZM626.502 399.348C627.09 399.348 627.608 399.217 628.056 398.956C628.504 398.685 628.854 398.303 629.106 397.808C629.358 397.313 629.484 396.739 629.484 396.086C629.484 395.433 629.358 394.863 629.106 394.378C628.854 393.883 628.504 393.505 628.056 393.244C627.608 392.983 627.09 392.852 626.502 392.852C625.914 392.852 625.391 392.983 624.934 393.244C624.486 393.505 624.136 393.883 623.884 394.378C623.632 394.863 623.506 395.433 623.506 396.086C623.506 396.739 623.632 397.313 623.884 397.808C624.136 398.303 624.486 398.685 624.934 398.956C625.391 399.217 625.914 399.348 626.502 399.348ZM640.28 393.244V401H638.306V400.02C638.054 400.356 637.723 400.622 637.312 400.818C636.911 401.005 636.472 401.098 635.996 401.098C635.39 401.098 634.853 400.972 634.386 400.72C633.92 400.459 633.551 400.081 633.28 399.586C633.019 399.082 632.888 398.485 632.888 397.794V393.244H634.848V397.514C634.848 398.13 635.002 398.606 635.31 398.942C635.618 399.269 636.038 399.432 636.57 399.432C637.112 399.432 637.536 399.269 637.844 398.942C638.152 398.606 638.306 398.13 638.306 397.514V393.244H640.28ZM644.496 394.854V398.606C644.496 398.867 644.557 399.059 644.678 399.18C644.809 399.292 645.023 399.348 645.322 399.348H646.232V401H645C643.348 401 642.522 400.197 642.522 398.592V394.854H641.598V393.244H642.522V391.326H644.496V393.244H646.232V394.854H644.496ZM649.602 394.364C649.854 394.009 650.199 393.715 650.638 393.482C651.086 393.239 651.594 393.118 652.164 393.118C652.826 393.118 653.424 393.281 653.956 393.608C654.497 393.935 654.922 394.401 655.23 395.008C655.547 395.605 655.706 396.301 655.706 397.094C655.706 397.887 655.547 398.592 655.23 399.208C654.922 399.815 654.497 400.286 653.956 400.622C653.424 400.958 652.826 401.126 652.164 401.126C651.594 401.126 651.09 401.009 650.652 400.776C650.222 400.543 649.872 400.249 649.602 399.894V404.696H647.642V393.244H649.602V394.364ZM653.704 397.094C653.704 396.627 653.606 396.226 653.41 395.89C653.223 395.545 652.971 395.283 652.654 395.106C652.346 394.929 652.01 394.84 651.646 394.84C651.291 394.84 650.955 394.933 650.638 395.12C650.33 395.297 650.078 395.559 649.882 395.904C649.695 396.249 649.602 396.655 649.602 397.122C649.602 397.589 649.695 397.995 649.882 398.34C650.078 398.685 650.33 398.951 650.638 399.138C650.955 399.315 651.291 399.404 651.646 399.404C652.01 399.404 652.346 399.311 652.654 399.124C652.971 398.937 653.223 398.671 653.41 398.326C653.606 397.981 653.704 397.57 653.704 397.094ZM664.452 393.244V401H662.478V400.02C662.226 400.356 661.895 400.622 661.484 400.818C661.083 401.005 660.644 401.098 660.168 401.098C659.561 401.098 659.025 400.972 658.558 400.72C658.091 400.459 657.723 400.081 657.452 399.586C657.191 399.082 657.06 398.485 657.06 397.794V393.244H659.02V397.514C659.02 398.13 659.174 398.606 659.482 398.942C659.79 399.269 660.21 399.432 660.742 399.432C661.283 399.432 661.708 399.269 662.016 398.942C662.324 398.606 662.478 398.13 662.478 397.514V393.244H664.452ZM668.668 394.854V398.606C668.668 398.867 668.729 399.059 668.85 399.18C668.981 399.292 669.195 399.348 669.494 399.348H670.404V401H669.172C667.52 401 666.694 400.197 666.694 398.592V394.854H665.77V393.244H666.694V391.326H668.668V393.244H670.404V394.854H668.668Z" fill="#6941C6"/>
<path d="M677.5 396C677.5 391.858 680.858 388.5 685 388.5C689.142 388.5 692.5 391.858 692.5 396C692.5 400.142 689.142 403.5 685 403.5C680.858 403.5 677.5 400.142 677.5 396Z" stroke="#D0D5DD"/>
</g>
</g>
<path d="M321 509.651C344.933 512.568 392.04 498.453 389 418.665C385.96 338.877 420.4 328.262 438 332.928" stroke="#D0D5DD"/>
<g filter="url(#filter3_d_1_20595)">
<g clip-path="url(#clip2_1_20595)">
<path d="M52 169C52 162.373 57.3726 157 64 157H309C315.627 157 321 162.373 321 169V542C321 548.627 315.627 554 309 554H64C57.3726 554 52 548.627 52 542V169Z" fill="white"/>
<path d="M90 183.27V187.4C90 187.96 90 188.24 90.109 188.454C90.2049 188.642 90.3578 188.795 90.546 188.891C90.7599 189 91.0399 189 91.6 189H95.7305M90 198H84M92 194H84M96 190.988V198.2C96 199.88 96 200.72 95.673 201.362C95.3854 201.926 94.9265 202.385 94.362 202.673C93.7202 203 92.8802 203 91.2 203H84.8C83.1198 203 82.2798 203 81.638 202.673C81.0735 202.385 80.6146 201.926 80.327 201.362C80 200.72 80 199.88 80 198.2V187.8C80 186.12 80 185.28 80.327 184.638C80.6146 184.074 81.0735 183.615 81.638 183.327C82.2798 183 83.1198 183 84.8 183H88.0118C88.7455 183 89.1124 183 89.4577 183.083C89.7638 183.156 90.0564 183.278 90.3249 183.442C90.6276 183.628 90.887 183.887 91.4059 184.406L94.5941 187.594C95.113 188.113 95.3724 188.372 95.5579 188.675C95.7224 188.944 95.8436 189.236 95.9171 189.542C96 189.888 96 190.254 96 190.988Z" stroke="#101828" stroke-width="2" stroke-linecap="round" stroke-linejoin="round"/>
<path d="M117.792 188.436V190.47H114.444V201H111.924V190.47H108.576V188.436H117.792ZM128.901 195.798C128.901 196.158 128.877 196.482 128.829 196.77H121.539C121.599 197.49 121.851 198.054 122.295 198.462C122.739 198.87 123.285 199.074 123.933 199.074C124.869 199.074 125.535 198.672 125.931 197.868H128.649C128.361 198.828 127.809 199.62 126.993 200.244C126.177 200.856 125.175 201.162 123.987 201.162C123.027 201.162 122.163 200.952 121.395 200.532C120.639 200.1 120.045 199.494 119.613 198.714C119.193 197.934 118.983 197.034 118.983 196.014C118.983 194.982 119.193 194.076 119.613 193.296C120.033 192.516 120.621 191.916 121.377 191.496C122.133 191.076 123.003 190.866 123.987 190.866C124.935 190.866 125.781 191.07 126.525 191.478C127.281 191.886 127.863 192.468 128.271 193.224C128.691 193.968 128.901 194.826 128.901 195.798ZM126.291 195.078C126.279 194.43 126.045 193.914 125.589 193.53C125.133 193.134 124.575 192.936 123.915 192.936C123.291 192.936 122.763 193.128 122.331 193.512C121.911 193.884 121.653 194.406 121.557 195.078H126.291ZM136.248 201L134.196 197.904L132.378 201H129.678L132.936 195.996L129.642 191.028H132.486L134.52 194.106L136.356 191.028H139.056L135.78 195.996L139.092 201H136.248ZM143.395 193.098V197.922C143.395 198.258 143.473 198.504 143.629 198.66C143.797 198.804 144.073 198.876 144.457 198.876H145.627V201H144.043C141.919 201 140.857 199.968 140.857 197.904V193.098H139.669V191.028H140.857V188.562H143.395V191.028H145.627V193.098H143.395ZM156.084 204.546C154.92 203.418 154.014 201.978 153.366 200.226C152.73 198.474 152.412 196.596 152.412 194.592C152.412 192.54 152.748 190.614 153.42 188.814C154.092 187.002 155.07 185.52 156.354 184.368H158.892V184.602C157.572 185.862 156.564 187.374 155.868 189.138C155.184 190.902 154.842 192.72 154.842 194.592C154.842 196.416 155.166 198.18 155.814 199.884C156.474 201.576 157.41 203.046 158.622 204.294V204.546H156.084ZM159.871 190.2V187.878H164.209V201H161.617V190.2H159.871ZM166.338 204.546V204.294C167.55 203.046 168.48 201.576 169.128 199.884C169.788 198.18 170.118 196.416 170.118 194.592C170.118 192.72 169.77 190.902 169.074 189.138C168.39 187.374 167.388 185.862 166.068 184.602V184.368H168.606C169.89 185.52 170.868 187.002 171.54 188.814C172.212 190.614 172.548 192.54 172.548 194.592C172.548 196.596 172.224 198.474 171.576 200.226C170.94 201.978 170.04 203.418 168.876 204.546H166.338Z" fill="#101828"/>
<path d="M280.09 192C280.325 191.332 280.789 190.768 281.4 190.409C282.011 190.05 282.729 189.919 283.427 190.039C284.125 190.158 284.759 190.522 285.215 191.064C285.671 191.606 285.921 192.292 285.92 193C285.92 195 282.92 196 282.92 196M283 200H283.01M293 195C293 200.523 288.523 205 283 205C277.477 205 273 200.523 273 195C273 189.477 277.477 185 283 185C288.523 185 293 189.477 293 195Z" stroke="#98A2B3" stroke-width="2" stroke-linecap="round" stroke-linejoin="round"/>
<path d="M78.352 355.278V358.54H81.908V359.59H78.352V362.95H82.328V364H77.078V354.228H82.328V355.278H78.352ZM87.9937 356.188C88.9271 356.188 89.6831 356.473 90.2617 357.042C90.8404 357.602 91.1297 358.414 91.1297 359.478V364H89.8697V359.66C89.8697 358.895 89.6784 358.311 89.2957 357.91C88.9131 357.499 88.3904 357.294 87.7277 357.294C87.0557 357.294 86.5191 357.504 86.1177 357.924C85.7257 358.344 85.5297 358.955 85.5297 359.758V364H84.2557V356.328H85.5297V357.42C85.7817 357.028 86.1224 356.725 86.5517 356.51C86.9904 356.295 87.4711 356.188 87.9937 356.188ZM94.7648 357.378V361.9C94.7648 362.273 94.8441 362.539 95.0028 362.698C95.1615 362.847 95.4368 362.922 95.8288 362.922H96.7668V364H95.6188C94.9095 364 94.3775 363.837 94.0228 363.51C93.6681 363.183 93.4908 362.647 93.4908 361.9V357.378H92.4968V356.328H93.4908V354.396H94.7648V356.328H96.7668V357.378H94.7648ZM105.31 359.87C105.31 360.113 105.296 360.369 105.268 360.64H99.1364C99.1831 361.396 99.4398 361.989 99.9064 362.418C100.382 362.838 100.956 363.048 101.628 363.048C102.179 363.048 102.636 362.922 103 362.67C103.374 362.409 103.635 362.063 103.784 361.634H105.156C104.951 362.371 104.54 362.973 103.924 363.44C103.308 363.897 102.543 364.126 101.628 364.126C100.9 364.126 100.247 363.963 99.6684 363.636C99.0991 363.309 98.6511 362.847 98.3244 362.25C97.9978 361.643 97.8344 360.943 97.8344 360.15C97.8344 359.357 97.9931 358.661 98.3104 358.064C98.6278 357.467 99.0711 357.009 99.6404 356.692C100.219 356.365 100.882 356.202 101.628 356.202C102.356 356.202 103 356.361 103.56 356.678C104.12 356.995 104.55 357.434 104.848 357.994C105.156 358.545 105.31 359.17 105.31 359.87ZM103.994 359.604C103.994 359.119 103.887 358.703 103.672 358.358C103.458 358.003 103.164 357.737 102.79 357.56C102.426 357.373 102.02 357.28 101.572 357.28C100.928 357.28 100.378 357.485 99.9204 357.896C99.4724 358.307 99.2158 358.876 99.1504 359.604H103.994ZM108.266 357.574C108.49 357.135 108.807 356.795 109.218 356.552C109.638 356.309 110.147 356.188 110.744 356.188V357.504H110.408C108.98 357.504 108.266 358.279 108.266 359.828V364H106.992V356.328H108.266V357.574ZM122.555 356.328L117.935 367.612H116.619L118.131 363.916L115.037 356.328H116.451L118.859 362.544L121.239 356.328H122.555ZM127.182 364.126C126.463 364.126 125.81 363.963 125.222 363.636C124.643 363.309 124.186 362.847 123.85 362.25C123.523 361.643 123.36 360.943 123.36 360.15C123.36 359.366 123.528 358.675 123.864 358.078C124.209 357.471 124.676 357.009 125.264 356.692C125.852 356.365 126.51 356.202 127.238 356.202C127.966 356.202 128.624 356.365 129.212 356.692C129.8 357.009 130.262 357.467 130.598 358.064C130.943 358.661 131.116 359.357 131.116 360.15C131.116 360.943 130.938 361.643 130.584 362.25C130.238 362.847 129.767 363.309 129.17 363.636C128.572 363.963 127.91 364.126 127.182 364.126ZM127.182 363.006C127.639 363.006 128.068 362.899 128.47 362.684C128.871 362.469 129.193 362.147 129.436 361.718C129.688 361.289 129.814 360.766 129.814 360.15C129.814 359.534 129.692 359.011 129.45 358.582C129.207 358.153 128.89 357.835 128.498 357.63C128.106 357.415 127.681 357.308 127.224 357.308C126.757 357.308 126.328 357.415 125.936 357.63C125.553 357.835 125.245 358.153 125.012 358.582C124.778 359.011 124.662 359.534 124.662 360.15C124.662 360.775 124.774 361.303 124.998 361.732C125.231 362.161 125.539 362.483 125.922 362.698C126.304 362.903 126.724 363.006 127.182 363.006ZM139.595 356.328V364H138.321V362.866C138.078 363.258 137.738 363.566 137.299 363.79C136.87 364.005 136.394 364.112 135.871 364.112C135.274 364.112 134.737 363.991 134.261 363.748C133.785 363.496 133.407 363.123 133.127 362.628C132.856 362.133 132.721 361.531 132.721 360.822V356.328H133.981V360.654C133.981 361.41 134.172 361.993 134.555 362.404C134.938 362.805 135.46 363.006 136.123 363.006C136.804 363.006 137.341 362.796 137.733 362.376C138.125 361.956 138.321 361.345 138.321 360.542V356.328H139.595ZM143.02 357.574C143.244 357.135 143.561 356.795 143.972 356.552C144.392 356.309 144.901 356.188 145.498 356.188V357.504H145.162C143.734 357.504 143.02 358.279 143.02 359.828V364H141.746V356.328H143.02V357.574ZM152.255 357.378V361.9C152.255 362.273 152.334 362.539 152.493 362.698C152.652 362.847 152.927 362.922 153.319 362.922H154.257V364H153.109C152.4 364 151.868 363.837 151.513 363.51C151.158 363.183 150.981 362.647 150.981 361.9V357.378H149.987V356.328H150.981V354.396H152.255V356.328H154.257V357.378H152.255ZM162.801 359.87C162.801 360.113 162.787 360.369 162.759 360.64H156.627C156.673 361.396 156.93 361.989 157.397 362.418C157.873 362.838 158.447 363.048 159.119 363.048C159.669 363.048 160.127 362.922 160.491 362.67C160.864 362.409 161.125 362.063 161.275 361.634H162.647C162.441 362.371 162.031 362.973 161.415 363.44C160.799 363.897 160.033 364.126 159.119 364.126C158.391 364.126 157.737 363.963 157.159 363.636C156.589 363.309 156.141 362.847 155.815 362.25C155.488 361.643 155.325 360.943 155.325 360.15C155.325 359.357 155.483 358.661 155.801 358.064C156.118 357.467 156.561 357.009 157.131 356.692C157.709 356.365 158.372 356.202 159.119 356.202C159.847 356.202 160.491 356.361 161.051 356.678C161.611 356.995 162.04 357.434 162.339 357.994C162.647 358.545 162.801 359.17 162.801 359.87ZM161.485 359.604C161.485 359.119 161.377 358.703 161.163 358.358C160.948 358.003 160.654 357.737 160.281 357.56C159.917 357.373 159.511 357.28 159.063 357.28C158.419 357.28 157.868 357.485 157.411 357.896C156.963 358.307 156.706 358.876 156.641 359.604H161.485ZM168.486 364L166.666 361.144L164.916 364H163.586L166.064 360.192L163.586 356.328H165.028L166.848 359.17L168.584 356.328H169.914L167.45 360.122L169.928 364H168.486ZM172.736 357.378V361.9C172.736 362.273 172.815 362.539 172.974 362.698C173.132 362.847 173.408 362.922 173.8 362.922H174.738V364H173.59C172.88 364 172.348 363.837 171.994 363.51C171.639 363.183 171.462 362.647 171.462 361.9V357.378H170.468V356.328H171.462V354.396H172.736V356.328H174.738V357.378H172.736ZM181.568 357.378V361.9C181.568 362.273 181.647 362.539 181.806 362.698C181.964 362.847 182.24 362.922 182.632 362.922H183.57V364H182.422C181.712 364 181.18 363.837 180.826 363.51C180.471 363.183 180.294 362.647 180.294 361.9V357.378H179.3V356.328H180.294V354.396H181.568V356.328H183.57V357.378H181.568ZM188.459 364.126C187.74 364.126 187.087 363.963 186.499 363.636C185.92 363.309 185.463 362.847 185.127 362.25C184.8 361.643 184.637 360.943 184.637 360.15C184.637 359.366 184.805 358.675 185.141 358.078C185.486 357.471 185.953 357.009 186.541 356.692C187.129 356.365 187.787 356.202 188.515 356.202C189.243 356.202 189.901 356.365 190.489 356.692C191.077 357.009 191.539 357.467 191.875 358.064C192.22 358.661 192.393 359.357 192.393 360.15C192.393 360.943 192.216 361.643 191.861 362.25C191.516 362.847 191.044 363.309 190.447 363.636C189.85 363.963 189.187 364.126 188.459 364.126ZM188.459 363.006C188.916 363.006 189.346 362.899 189.747 362.684C190.148 362.469 190.47 362.147 190.713 361.718C190.965 361.289 191.091 360.766 191.091 360.15C191.091 359.534 190.97 359.011 190.727 358.582C190.484 358.153 190.167 357.835 189.775 357.63C189.383 357.415 188.958 357.308 188.501 357.308C188.034 357.308 187.605 357.415 187.213 357.63C186.83 357.835 186.522 358.153 186.289 358.582C186.056 359.011 185.939 359.534 185.939 360.15C185.939 360.775 186.051 361.303 186.275 361.732C186.508 362.161 186.816 362.483 187.199 362.698C187.582 362.903 188.002 363.006 188.459 363.006ZM200.517 364.126C199.929 364.126 199.401 364.028 198.935 363.832C198.468 363.627 198.099 363.347 197.829 362.992C197.558 362.628 197.409 362.213 197.381 361.746H198.697C198.734 362.129 198.911 362.441 199.229 362.684C199.555 362.927 199.98 363.048 200.503 363.048C200.988 363.048 201.371 362.941 201.651 362.726C201.931 362.511 202.071 362.241 202.071 361.914C202.071 361.578 201.921 361.331 201.623 361.172C201.324 361.004 200.862 360.841 200.237 360.682C199.667 360.533 199.201 360.383 198.837 360.234C198.482 360.075 198.174 359.847 197.913 359.548C197.661 359.24 197.535 358.839 197.535 358.344C197.535 357.952 197.651 357.593 197.885 357.266C198.118 356.939 198.449 356.683 198.879 356.496C199.308 356.3 199.798 356.202 200.349 356.202C201.198 356.202 201.884 356.417 202.407 356.846C202.929 357.275 203.209 357.863 203.247 358.61H201.973C201.945 358.209 201.781 357.887 201.483 357.644C201.193 357.401 200.801 357.28 200.307 357.28C199.849 357.28 199.485 357.378 199.215 357.574C198.944 357.77 198.809 358.027 198.809 358.344C198.809 358.596 198.888 358.806 199.047 358.974C199.215 359.133 199.42 359.263 199.663 359.366C199.915 359.459 200.26 359.567 200.699 359.688C201.249 359.837 201.697 359.987 202.043 360.136C202.388 360.276 202.682 360.491 202.925 360.78C203.177 361.069 203.307 361.447 203.317 361.914C203.317 362.334 203.2 362.712 202.967 363.048C202.733 363.384 202.402 363.65 201.973 363.846C201.553 364.033 201.067 364.126 200.517 364.126ZM206.669 357.378V361.9C206.669 362.273 206.748 362.539 206.907 362.698C207.066 362.847 207.341 362.922 207.733 362.922H208.671V364H207.523C206.814 364 206.282 363.837 205.927 363.51C205.572 363.183 205.395 362.647 205.395 361.9V357.378H204.401V356.328H205.395V354.396H206.669V356.328H208.671V357.378H206.669ZM209.739 360.136C209.739 359.352 209.897 358.666 210.215 358.078C210.532 357.481 210.966 357.019 211.517 356.692C212.077 356.365 212.697 356.202 213.379 356.202C214.051 356.202 214.634 356.347 215.129 356.636C215.623 356.925 215.992 357.289 216.235 357.728V356.328H217.523V364H216.235V362.572C215.983 363.02 215.605 363.393 215.101 363.692C214.606 363.981 214.027 364.126 213.365 364.126C212.683 364.126 212.067 363.958 211.517 363.622C210.966 363.286 210.532 362.815 210.215 362.208C209.897 361.601 209.739 360.911 209.739 360.136ZM216.235 360.15C216.235 359.571 216.118 359.067 215.885 358.638C215.651 358.209 215.334 357.882 214.933 357.658C214.541 357.425 214.107 357.308 213.631 357.308C213.155 357.308 212.721 357.42 212.329 357.644C211.937 357.868 211.624 358.195 211.391 358.624C211.157 359.053 211.041 359.557 211.041 360.136C211.041 360.724 211.157 361.237 211.391 361.676C211.624 362.105 211.937 362.437 212.329 362.67C212.721 362.894 213.155 363.006 213.631 363.006C214.107 363.006 214.541 362.894 214.933 362.67C215.334 362.437 215.651 362.105 215.885 361.676C216.118 361.237 216.235 360.729 216.235 360.15ZM220.95 357.574C221.174 357.135 221.491 356.795 221.902 356.552C222.322 356.309 222.83 356.188 223.428 356.188V357.504H223.092C221.664 357.504 220.95 358.279 220.95 359.828V364H219.676V356.328H220.95V357.574ZM226.452 357.378V361.9C226.452 362.273 226.532 362.539 226.69 362.698C226.849 362.847 227.124 362.922 227.516 362.922H228.454V364H227.306C226.597 364 226.065 363.837 225.71 363.51C225.356 363.183 225.178 362.647 225.178 361.9V357.378H224.184V356.328H225.178V354.396H226.452V356.328H228.454V357.378H226.452Z" fill="#475467"/>
<path d="M78.646 235.558V238.414H82.006V239.716H78.646V242.698H82.426V244H77.05V234.256H82.426V235.558H78.646ZM88.2838 236.16C88.8905 236.16 89.4318 236.286 89.9078 236.538C90.3931 236.79 90.7711 237.163 91.0418 237.658C91.3125 238.153 91.4478 238.75 91.4478 239.45V244H89.8658V239.688C89.8658 238.997 89.6931 238.47 89.3478 238.106C89.0025 237.733 88.5311 237.546 87.9338 237.546C87.3365 237.546 86.8605 237.733 86.5058 238.106C86.1605 238.47 85.9878 238.997 85.9878 239.688V244H84.3918V236.286H85.9878V237.168C86.2491 236.851 86.5805 236.603 86.9818 236.426C87.3925 236.249 87.8265 236.16 88.2838 236.16ZM95.3456 237.588V241.858C95.3456 242.147 95.4109 242.357 95.5416 242.488C95.6816 242.609 95.9149 242.67 96.2416 242.67H97.2216V244H95.9616C95.2429 244 94.6923 243.832 94.3096 243.496C93.9269 243.16 93.7356 242.614 93.7356 241.858V237.588H92.8256V236.286H93.7356V234.368H95.3456V236.286H97.2216V237.588H95.3456ZM105.763 239.954C105.763 240.243 105.744 240.505 105.707 240.738H99.8126C99.8592 241.354 100.088 241.849 100.499 242.222C100.909 242.595 101.413 242.782 102.011 242.782C102.869 242.782 103.476 242.423 103.831 241.704H105.553C105.319 242.413 104.895 242.997 104.279 243.454C103.672 243.902 102.916 244.126 102.011 244.126C101.273 244.126 100.611 243.963 100.023 243.636C99.4439 243.3 98.9866 242.833 98.6506 242.236C98.3239 241.629 98.1606 240.929 98.1606 240.136C98.1606 239.343 98.3192 238.647 98.6366 238.05C98.9632 237.443 99.4159 236.977 99.9946 236.65C100.583 236.323 101.255 236.16 102.011 236.16C102.739 236.16 103.387 236.319 103.957 236.636C104.526 236.953 104.969 237.401 105.287 237.98C105.604 238.549 105.763 239.207 105.763 239.954ZM104.097 239.45C104.087 238.862 103.877 238.391 103.467 238.036C103.056 237.681 102.547 237.504 101.941 237.504C101.39 237.504 100.919 237.681 100.527 238.036C100.135 238.381 99.9012 238.853 99.8266 239.45H104.097ZM108.929 237.406C109.163 237.014 109.471 236.711 109.853 236.496C110.245 236.272 110.707 236.16 111.239 236.16V237.812H110.833C110.208 237.812 109.732 237.971 109.405 238.288C109.088 238.605 108.929 239.156 108.929 239.94V244H107.333V236.286H108.929V237.406ZM123.287 236.286L118.555 247.626H116.903L118.471 243.874L115.433 236.286H117.211L119.381 242.166L121.635 236.286H123.287ZM127.837 244.126C127.109 244.126 126.451 243.963 125.863 243.636C125.275 243.3 124.813 242.833 124.477 242.236C124.141 241.629 123.973 240.929 123.973 240.136C123.973 239.352 124.146 238.657 124.491 238.05C124.837 237.443 125.308 236.977 125.905 236.65C126.503 236.323 127.17 236.16 127.907 236.16C128.645 236.16 129.312 236.323 129.909 236.65C130.507 236.977 130.978 237.443 131.323 238.05C131.669 238.657 131.841 239.352 131.841 240.136C131.841 240.92 131.664 241.615 131.309 242.222C130.955 242.829 130.469 243.3 129.853 243.636C129.247 243.963 128.575 244.126 127.837 244.126ZM127.837 242.74C128.248 242.74 128.631 242.642 128.985 242.446C129.349 242.25 129.643 241.956 129.867 241.564C130.091 241.172 130.203 240.696 130.203 240.136C130.203 239.576 130.096 239.105 129.881 238.722C129.667 238.33 129.382 238.036 129.027 237.84C128.673 237.644 128.29 237.546 127.879 237.546C127.469 237.546 127.086 237.644 126.731 237.84C126.386 238.036 126.111 238.33 125.905 238.722C125.7 239.105 125.597 239.576 125.597 240.136C125.597 240.967 125.807 241.611 126.227 242.068C126.657 242.516 127.193 242.74 127.837 242.74ZM140.405 236.286V244H138.809V243.09C138.557 243.407 138.226 243.659 137.815 243.846C137.414 244.023 136.984 244.112 136.527 244.112C135.92 244.112 135.374 243.986 134.889 243.734C134.413 243.482 134.035 243.109 133.755 242.614C133.484 242.119 133.349 241.522 133.349 240.822V236.286H134.931V240.584C134.931 241.275 135.104 241.807 135.449 242.18C135.794 242.544 136.266 242.726 136.863 242.726C137.46 242.726 137.932 242.544 138.277 242.18C138.632 241.807 138.809 241.275 138.809 240.584V236.286H140.405ZM144.107 237.406C144.34 237.014 144.648 236.711 145.031 236.496C145.423 236.272 145.885 236.16 146.417 236.16V237.812H146.011C145.386 237.812 144.91 237.971 144.583 238.288C144.266 238.605 144.107 239.156 144.107 239.94V244H142.511V236.286H144.107V237.406ZM157.807 234.27V235.572H155.217V244H153.621V235.572H151.017V234.27H157.807ZM166.493 239.954C166.493 240.243 166.474 240.505 166.437 240.738H160.543C160.59 241.354 160.818 241.849 161.229 242.222C161.64 242.595 162.144 242.782 162.741 242.782C163.6 242.782 164.206 242.423 164.561 241.704H166.283C166.05 242.413 165.625 242.997 165.009 243.454C164.402 243.902 163.646 244.126 162.741 244.126C162.004 244.126 161.341 243.963 160.753 243.636C160.174 243.3 159.717 242.833 159.381 242.236C159.054 241.629 158.891 240.929 158.891 240.136C158.891 239.343 159.05 238.647 159.367 238.05C159.694 237.443 160.146 236.977 160.725 236.65C161.313 236.323 161.985 236.16 162.741 236.16C163.469 236.16 164.118 236.319 164.687 236.636C165.256 236.953 165.7 237.401 166.017 237.98C166.334 238.549 166.493 239.207 166.493 239.954ZM164.827 239.45C164.818 238.862 164.608 238.391 164.197 238.036C163.786 237.681 163.278 237.504 162.671 237.504C162.12 237.504 161.649 237.681 161.257 238.036C160.865 238.381 160.632 238.853 160.557 239.45H164.827ZM171.368 240.094L173.86 244H172.054L170.388 241.382L168.82 244H167.154L169.646 240.206L167.154 236.286H168.96L170.626 238.904L172.194 236.286H173.86L171.368 240.094ZM176.912 237.588V241.858C176.912 242.147 176.977 242.357 177.108 242.488C177.248 242.609 177.481 242.67 177.808 242.67H178.788V244H177.528C176.809 244 176.259 243.832 175.876 243.496C175.493 243.16 175.302 242.614 175.302 241.858V237.588H174.392V236.286H175.302V234.368H176.912V236.286H178.788V237.588H176.912Z" fill="#344054"/>
<g clip-path="url(#clip3_1_20595)">
<path d="M188.06 237C188.217 236.554 188.526 236.179 188.933 235.939C189.341 235.7 189.819 235.613 190.285 235.692C190.75 235.772 191.173 236.014 191.477 236.376C191.781 236.737 191.947 237.194 191.947 237.667C191.947 239 189.947 239.667 189.947 239.667M190 242.333H190.007M196.667 239C196.667 242.682 193.682 245.667 190 245.667C186.318 245.667 183.333 242.682 183.333 239C183.333 235.318 186.318 232.333 190 232.333C193.682 232.333 196.667 235.318 196.667 239Z" stroke="#98A2B3" stroke-width="1.33333" stroke-linecap="round" stroke-linejoin="round"/>
</g>
<g filter="url(#filter4_d_1_20595)">
<path d="M76 263C76 258.582 79.5817 255 84 255H289C293.418 255 297 258.582 297 263V335C297 339.418 293.418 343 289 343H84C79.5817 343 76 339.418 76 335V263Z" fill="white"/>
<path d="M76.5 263C76.5 258.858 79.8579 255.5 84 255.5H289C293.142 255.5 296.5 258.858 296.5 263V335C296.5 339.142 293.142 342.5 289 342.5H84C79.8579 342.5 76.5 339.142 76.5 335V263Z" stroke="#D0D5DD"/>
<path d="M92.688 273.848V285H91.232V273.848H92.688ZM97.6175 273.752L94.2095 275.576V274.488L97.6175 272.488V273.752ZM109.667 276.072C110.349 276.072 110.957 276.216 111.491 276.504C112.024 276.781 112.445 277.203 112.755 277.768C113.064 278.333 113.219 279.021 113.219 279.832V285H111.779V280.04C111.779 279.165 111.56 278.499 111.123 278.04C110.696 277.571 110.115 277.336 109.379 277.336C108.621 277.336 108.019 277.581 107.571 278.072C107.123 278.552 106.899 279.251 106.899 280.168V285H105.459V280.04C105.459 279.165 105.24 278.499 104.803 278.04C104.376 277.571 103.795 277.336 103.059 277.336C102.301 277.336 101.699 277.581 101.251 278.072C100.803 278.552 100.579 279.251 100.579 280.168V285H99.1226V276.232H100.579V277.496C100.867 277.037 101.251 276.685 101.731 276.44C102.221 276.195 102.76 276.072 103.347 276.072C104.083 276.072 104.733 276.237 105.299 276.568C105.864 276.899 106.285 277.384 106.563 278.024C106.808 277.405 107.213 276.925 107.779 276.584C108.344 276.243 108.973 276.072 109.667 276.072ZM124.225 276.072C124.886 276.072 125.483 276.216 126.017 276.504C126.55 276.781 126.966 277.203 127.265 277.768C127.574 278.333 127.729 279.021 127.729 279.832V285H126.289V280.04C126.289 279.165 126.07 278.499 125.633 278.04C125.195 277.571 124.598 277.336 123.841 277.336C123.073 277.336 122.459 277.576 122.001 278.056C121.553 278.536 121.329 279.235 121.329 280.152V285H119.873V273.16H121.329V277.48C121.617 277.032 122.011 276.685 122.513 276.44C123.025 276.195 123.595 276.072 124.225 276.072ZM138.107 280.28C138.107 280.557 138.091 280.851 138.059 281.16H131.051C131.104 282.024 131.398 282.701 131.931 283.192C132.475 283.672 133.131 283.912 133.899 283.912C134.528 283.912 135.051 283.768 135.467 283.48C135.894 283.181 136.192 282.787 136.363 282.296H137.931C137.696 283.139 137.227 283.827 136.523 284.36C135.819 284.883 134.944 285.144 133.899 285.144C133.067 285.144 132.32 284.957 131.659 284.584C131.008 284.211 130.496 283.683 130.123 283C129.75 282.307 129.563 281.507 129.563 280.6C129.563 279.693 129.744 278.899 130.107 278.216C130.47 277.533 130.976 277.011 131.627 276.648C132.288 276.275 133.046 276.088 133.899 276.088C134.731 276.088 135.467 276.269 136.107 276.632C136.747 276.995 137.238 277.496 137.579 278.136C137.931 278.765 138.107 279.48 138.107 280.28ZM136.603 279.976C136.603 279.421 136.48 278.947 136.235 278.552C135.99 278.147 135.654 277.843 135.227 277.64C134.811 277.427 134.347 277.32 133.835 277.32C133.099 277.32 132.47 277.555 131.947 278.024C131.435 278.493 131.142 279.144 131.067 279.976H136.603ZM141.485 277.656C141.741 277.155 142.104 276.765 142.573 276.488C143.053 276.211 143.634 276.072 144.317 276.072V277.576H143.933C142.301 277.576 141.485 278.461 141.485 280.232V285H140.029V276.232H141.485V277.656ZM153.998 280.28C153.998 280.557 153.982 280.851 153.95 281.16H146.942C146.995 282.024 147.288 282.701 147.822 283.192C148.366 283.672 149.022 283.912 149.79 283.912C150.419 283.912 150.942 283.768 151.358 283.48C151.784 283.181 152.083 282.787 152.254 282.296H153.822C153.587 283.139 153.118 283.827 152.414 284.36C151.71 284.883 150.835 285.144 149.79 285.144C148.958 285.144 148.211 284.957 147.55 284.584C146.899 284.211 146.387 283.683 146.014 283C145.64 282.307 145.454 281.507 145.454 280.6C145.454 279.693 145.635 278.899 145.998 278.216C146.36 277.533 146.867 277.011 147.518 276.648C148.179 276.275 148.936 276.088 149.79 276.088C150.622 276.088 151.358 276.269 151.998 276.632C152.638 276.995 153.128 277.496 153.47 278.136C153.822 278.765 153.998 279.48 153.998 280.28ZM152.494 279.976C152.494 279.421 152.371 278.947 152.126 278.552C151.88 278.147 151.544 277.843 151.118 277.64C150.702 277.427 150.238 277.32 149.726 277.32C148.99 277.32 148.36 277.555 147.838 278.024C147.326 278.493 147.032 279.144 146.958 279.976H152.494ZM157.808 273.848L157.632 281.848H156.416L156.24 273.848H157.808ZM157.088 285.096C156.81 285.096 156.576 285 156.384 284.808C156.192 284.616 156.096 284.381 156.096 284.104C156.096 283.827 156.192 283.592 156.384 283.4C156.576 283.208 156.81 283.112 157.088 283.112C157.354 283.112 157.578 283.208 157.76 283.4C157.952 283.592 158.048 283.827 158.048 284.104C158.048 284.381 157.952 284.616 157.76 284.808C157.578 285 157.354 285.096 157.088 285.096Z" fill="#667085"/>
<path d="M289 327L281 335" stroke="#D0D5DD" stroke-linecap="round"/>
<path d="M290 332L286 336" stroke="#D0D5DD" stroke-linecap="round"/>
</g>
<path fill-rule="evenodd" clip-rule="evenodd" d="M321 402H52V401H321V402Z" fill="#E4E7EC"/>
<mask id="path-46-inside-3_1_20595" fill="white">
<path d="M52 426H230C241.046 426 250 434.954 250 446C250 457.046 241.046 466 230 466H52V426Z"/>
</mask>
<path d="M52 426H230C241.046 426 250 434.954 250 446C250 457.046 241.046 466 230 466H52V426Z" fill="white"/>
<path d="M52 425H230C241.598 425 251 434.402 251 446H249C249 435.507 240.493 427 230 427H52V425ZM251 446C251 457.598 241.598 467 230 467H52V465H230C240.493 465 249 456.493 249 446H251ZM52 466V426V466ZM230 425C241.598 425 251 434.402 251 446C251 457.598 241.598 467 230 467V465C240.493 465 249 456.493 249 446C249 435.507 240.493 427 230 427V425Z" fill="#E4E7EC" mask="url(#path-46-inside-3_1_20595)"/>
<path d="M66.5 446C66.5 441.858 69.8579 438.5 74 438.5C78.1421 438.5 81.5 441.858 81.5 446C81.5 450.142 78.1421 453.5 74 453.5C69.8579 453.5 66.5 450.142 66.5 446Z" stroke="#D0D5DD"/>
<path d="M94.958 449.138H91.066L90.422 451H88.364L91.878 441.214H94.16L97.674 451H95.602L94.958 449.138ZM94.426 447.57L93.012 443.482L91.598 447.57H94.426ZM98.4835 447.094C98.4835 446.31 98.6375 445.615 98.9455 445.008C99.2628 444.401 99.6922 443.935 100.233 443.608C100.775 443.281 101.377 443.118 102.039 443.118C102.543 443.118 103.024 443.23 103.481 443.454C103.939 443.669 104.303 443.958 104.573 444.322V440.64H106.561V451H104.573V449.852C104.331 450.235 103.99 450.543 103.551 450.776C103.113 451.009 102.604 451.126 102.025 451.126C101.372 451.126 100.775 450.958 100.233 450.622C99.6922 450.286 99.2628 449.815 98.9455 449.208C98.6375 448.592 98.4835 447.887 98.4835 447.094ZM104.587 447.122C104.587 446.646 104.494 446.24 104.307 445.904C104.121 445.559 103.869 445.297 103.551 445.12C103.234 444.933 102.893 444.84 102.529 444.84C102.165 444.84 101.829 444.929 101.521 445.106C101.213 445.283 100.961 445.545 100.765 445.89C100.579 446.226 100.485 446.627 100.485 447.094C100.485 447.561 100.579 447.971 100.765 448.326C100.961 448.671 101.213 448.937 101.521 449.124C101.839 449.311 102.175 449.404 102.529 449.404C102.893 449.404 103.234 449.315 103.551 449.138C103.869 448.951 104.121 448.69 104.307 448.354C104.494 448.009 104.587 447.598 104.587 447.122ZM107.972 447.094C107.972 446.31 108.126 445.615 108.434 445.008C108.751 444.401 109.18 443.935 109.722 443.608C110.263 443.281 110.865 443.118 111.528 443.118C112.032 443.118 112.512 443.23 112.97 443.454C113.427 443.669 113.791 443.958 114.062 444.322V440.64H116.05V451H114.062V449.852C113.819 450.235 113.478 450.543 113.04 450.776C112.601 451.009 112.092 451.126 111.514 451.126C110.86 451.126 110.263 450.958 109.722 450.622C109.18 450.286 108.751 449.815 108.434 449.208C108.126 448.592 107.972 447.887 107.972 447.094ZM114.076 447.122C114.076 446.646 113.982 446.24 113.796 445.904C113.609 445.559 113.357 445.297 113.04 445.12C112.722 444.933 112.382 444.84 112.018 444.84C111.654 444.84 111.318 444.929 111.01 445.106C110.702 445.283 110.45 445.545 110.254 445.89C110.067 446.226 109.974 446.627 109.974 447.094C109.974 447.561 110.067 447.971 110.254 448.326C110.45 448.671 110.702 448.937 111.01 449.124C111.327 449.311 111.663 449.404 112.018 449.404C112.382 449.404 112.722 449.315 113.04 449.138C113.357 448.951 113.609 448.69 113.796 448.354C113.982 448.009 114.076 447.598 114.076 447.122ZM122.294 442.32C121.949 442.32 121.659 442.213 121.426 441.998C121.202 441.774 121.09 441.499 121.09 441.172C121.09 440.845 121.202 440.575 121.426 440.36C121.659 440.136 121.949 440.024 122.294 440.024C122.639 440.024 122.924 440.136 123.148 440.36C123.381 440.575 123.498 440.845 123.498 441.172C123.498 441.499 123.381 441.774 123.148 441.998C122.924 442.213 122.639 442.32 122.294 442.32ZM123.26 443.244V451H121.3V443.244H123.26ZM129.494 443.132C130.418 443.132 131.165 443.426 131.734 444.014C132.304 444.593 132.588 445.405 132.588 446.45V451H130.628V446.716C130.628 446.1 130.474 445.629 130.166 445.302C129.858 444.966 129.438 444.798 128.906 444.798C128.365 444.798 127.936 444.966 127.618 445.302C127.31 445.629 127.156 446.1 127.156 446.716V451H125.196V443.244H127.156V444.21C127.418 443.874 127.749 443.613 128.15 443.426C128.561 443.23 129.009 443.132 129.494 443.132ZM136.412 444.364C136.664 444.009 137.01 443.715 137.448 443.482C137.896 443.239 138.405 443.118 138.974 443.118C139.637 443.118 140.234 443.281 140.766 443.608C141.308 443.935 141.732 444.401 142.04 445.008C142.358 445.605 142.516 446.301 142.516 447.094C142.516 447.887 142.358 448.592 142.04 449.208C141.732 449.815 141.308 450.286 140.766 450.622C140.234 450.958 139.637 451.126 138.974 451.126C138.405 451.126 137.901 451.009 137.462 450.776C137.033 450.543 136.683 450.249 136.412 449.894V454.696H134.452V443.244H136.412V444.364ZM140.514 447.094C140.514 446.627 140.416 446.226 140.22 445.89C140.034 445.545 139.782 445.283 139.464 445.106C139.156 444.929 138.82 444.84 138.456 444.84C138.102 444.84 137.766 444.933 137.448 445.12C137.14 445.297 136.888 445.559 136.692 445.904C136.506 446.249 136.412 446.655 136.412 447.122C136.412 447.589 136.506 447.995 136.692 448.34C136.888 448.685 137.14 448.951 137.448 449.138C137.766 449.315 138.102 449.404 138.456 449.404C138.82 449.404 139.156 449.311 139.464 449.124C139.782 448.937 140.034 448.671 140.22 448.326C140.416 447.981 140.514 447.57 140.514 447.094ZM151.263 443.244V451H149.289V450.02C149.037 450.356 148.705 450.622 148.295 450.818C147.893 451.005 147.455 451.098 146.979 451.098C146.372 451.098 145.835 450.972 145.369 450.72C144.902 450.459 144.533 450.081 144.263 449.586C144.001 449.082 143.871 448.485 143.871 447.794V443.244H145.831V447.514C145.831 448.13 145.985 448.606 146.293 448.942C146.601 449.269 147.021 449.432 147.553 449.432C148.094 449.432 148.519 449.269 148.827 448.942C149.135 448.606 149.289 448.13 149.289 447.514V443.244H151.263ZM155.478 444.854V448.606C155.478 448.867 155.539 449.059 155.66 449.18C155.791 449.292 156.006 449.348 156.304 449.348H157.214V451H155.982C154.33 451 153.504 450.197 153.504 448.592V444.854H152.58V443.244H153.504V441.326H155.478V443.244H157.214V444.854H155.478ZM161.456 447.122C161.456 446.319 161.619 445.619 161.946 445.022C162.273 444.415 162.725 443.949 163.304 443.622C163.883 443.286 164.545 443.118 165.292 443.118C166.253 443.118 167.047 443.361 167.672 443.846C168.307 444.322 168.731 444.994 168.946 445.862H166.832C166.72 445.526 166.529 445.265 166.258 445.078C165.997 444.882 165.67 444.784 165.278 444.784C164.718 444.784 164.275 444.989 163.948 445.4C163.621 445.801 163.458 446.375 163.458 447.122C163.458 447.859 163.621 448.433 163.948 448.844C164.275 449.245 164.718 449.446 165.278 449.446C166.071 449.446 166.589 449.091 166.832 448.382H168.946C168.731 449.222 168.307 449.889 167.672 450.384C167.037 450.879 166.244 451.126 165.292 451.126C164.545 451.126 163.883 450.963 163.304 450.636C162.725 450.3 162.273 449.833 161.946 449.236C161.619 448.629 161.456 447.925 161.456 447.122ZM173.826 451.126C173.079 451.126 172.407 450.963 171.81 450.636C171.213 450.3 170.741 449.829 170.396 449.222C170.06 448.615 169.892 447.915 169.892 447.122C169.892 446.329 170.065 445.629 170.41 445.022C170.765 444.415 171.245 443.949 171.852 443.622C172.459 443.286 173.135 443.118 173.882 443.118C174.629 443.118 175.305 443.286 175.912 443.622C176.519 443.949 176.995 444.415 177.34 445.022C177.695 445.629 177.872 446.329 177.872 447.122C177.872 447.915 177.69 448.615 177.326 449.222C176.971 449.829 176.486 450.3 175.87 450.636C175.263 450.963 174.582 451.126 173.826 451.126ZM173.826 449.418C174.181 449.418 174.512 449.334 174.82 449.166C175.137 448.989 175.389 448.727 175.576 448.382C175.763 448.037 175.856 447.617 175.856 447.122C175.856 446.385 175.66 445.82 175.268 445.428C174.885 445.027 174.414 444.826 173.854 444.826C173.294 444.826 172.823 445.027 172.44 445.428C172.067 445.82 171.88 446.385 171.88 447.122C171.88 447.859 172.062 448.429 172.426 448.83C172.799 449.222 173.266 449.418 173.826 449.418ZM183.608 443.132C184.532 443.132 185.278 443.426 185.848 444.014C186.417 444.593 186.702 445.405 186.702 446.45V451H184.742V446.716C184.742 446.1 184.588 445.629 184.28 445.302C183.972 444.966 183.552 444.798 183.02 444.798C182.478 444.798 182.049 444.966 181.732 445.302C181.424 445.629 181.27 446.1 181.27 446.716V451H179.31V443.244H181.27V444.21C181.531 443.874 181.862 443.613 182.264 443.426C182.674 443.23 183.122 443.132 183.608 443.132ZM192.864 443.132C193.788 443.132 194.534 443.426 195.104 444.014C195.673 444.593 195.958 445.405 195.958 446.45V451H193.998V446.716C193.998 446.1 193.844 445.629 193.536 445.302C193.228 444.966 192.808 444.798 192.276 444.798C191.734 444.798 191.305 444.966 190.988 445.302C190.68 445.629 190.526 446.1 190.526 446.716V451H188.566V443.244H190.526V444.21C190.787 443.874 191.118 443.613 191.52 443.426C191.93 443.23 192.378 443.132 192.864 443.132ZM205.031 446.954C205.031 447.234 205.013 447.486 204.975 447.71H199.305C199.352 448.27 199.548 448.709 199.893 449.026C200.239 449.343 200.663 449.502 201.167 449.502C201.895 449.502 202.413 449.189 202.721 448.564H204.835C204.611 449.311 204.182 449.927 203.547 450.412C202.913 450.888 202.133 451.126 201.209 451.126C200.463 451.126 199.791 450.963 199.193 450.636C198.605 450.3 198.143 449.829 197.807 449.222C197.481 448.615 197.317 447.915 197.317 447.122C197.317 446.319 197.481 445.615 197.807 445.008C198.134 444.401 198.591 443.935 199.179 443.608C199.767 443.281 200.444 443.118 201.209 443.118C201.947 443.118 202.605 443.277 203.183 443.594C203.771 443.911 204.224 444.364 204.541 444.952C204.868 445.531 205.031 446.198 205.031 446.954ZM203.001 446.394C202.992 445.89 202.81 445.489 202.455 445.19C202.101 444.882 201.667 444.728 201.153 444.728C200.668 444.728 200.257 444.877 199.921 445.176C199.595 445.465 199.394 445.871 199.319 446.394H203.001ZM205.958 447.122C205.958 446.319 206.121 445.619 206.448 445.022C206.775 444.415 207.227 443.949 207.806 443.622C208.385 443.286 209.047 443.118 209.794 443.118C210.755 443.118 211.549 443.361 212.174 443.846C212.809 444.322 213.233 444.994 213.448 445.862H211.334C211.222 445.526 211.031 445.265 210.76 445.078C210.499 444.882 210.172 444.784 209.78 444.784C209.22 444.784 208.777 444.989 208.45 445.4C208.123 445.801 207.96 446.375 207.96 447.122C207.96 447.859 208.123 448.433 208.45 448.844C208.777 449.245 209.22 449.446 209.78 449.446C210.573 449.446 211.091 449.091 211.334 448.382H213.448C213.233 449.222 212.809 449.889 212.174 450.384C211.539 450.879 210.746 451.126 209.794 451.126C209.047 451.126 208.385 450.963 207.806 450.636C207.227 450.3 206.775 449.833 206.448 449.236C206.121 448.629 205.958 447.925 205.958 447.122ZM217.166 444.854V448.606C217.166 448.867 217.227 449.059 217.348 449.18C217.479 449.292 217.693 449.348 217.992 449.348H218.902V451H217.67C216.018 451 215.192 450.197 215.192 448.592V444.854H214.268V443.244H215.192V441.326H217.166V443.244H218.902V444.854H217.166ZM223.756 451.126C223.009 451.126 222.337 450.963 221.74 450.636C221.142 450.3 220.671 449.829 220.326 449.222C219.99 448.615 219.822 447.915 219.822 447.122C219.822 446.329 219.994 445.629 220.34 445.022C220.694 444.415 221.175 443.949 221.782 443.622C222.388 443.286 223.065 443.118 223.812 443.118C224.558 443.118 225.235 443.286 225.842 443.622C226.448 443.949 226.924 444.415 227.27 445.022C227.624 445.629 227.802 446.329 227.802 447.122C227.802 447.915 227.62 448.615 227.256 449.222C226.901 449.829 226.416 450.3 225.8 450.636C225.193 450.963 224.512 451.126 223.756 451.126ZM223.756 449.418C224.11 449.418 224.442 449.334 224.75 449.166C225.067 448.989 225.319 448.727 225.506 448.382C225.692 448.037 225.786 447.617 225.786 447.122C225.786 446.385 225.59 445.82 225.198 445.428C224.815 445.027 224.344 444.826 223.784 444.826C223.224 444.826 222.752 445.027 222.37 445.428C221.996 445.82 221.81 446.385 221.81 447.122C221.81 447.859 221.992 448.429 222.356 448.83C222.729 449.222 223.196 449.418 223.756 449.418ZM231.199 444.448C231.451 444.037 231.778 443.715 232.179 443.482C232.59 443.249 233.057 443.132 233.579 443.132V445.19H233.061C232.445 445.19 231.979 445.335 231.661 445.624C231.353 445.913 231.199 446.417 231.199 447.136V451H229.239V443.244H231.199V444.448Z" fill="#475467"/>
<mask id="path-50-inside-4_1_20595" fill="white">
<path d="M219 510C219 498.954 227.954 490 239 490H321V530H239C227.954 530 219 521.046 219 510Z"/>
</mask>
<path d="M219 510C219 498.954 227.954 490 239 490H321V530H239C227.954 530 219 521.046 219 510Z" fill="white"/>
<path d="M218 510C218 498.402 227.402 489 239 489H321V491H239C228.507 491 220 499.507 220 510H218ZM321 531H239C227.402 531 218 521.598 218 510H220C220 520.493 228.507 529 239 529H321V531ZM239 531C227.402 531 218 521.598 218 510C218 498.402 227.402 489 239 489V491C228.507 491 220 499.507 220 510C220 520.493 228.507 529 239 529V531ZM321 490V530V490Z" fill="#D6BBFB" mask="url(#path-50-inside-4_1_20595)"/>
<path d="M240.502 515.098C239.587 515.098 238.747 514.883 237.982 514.454C237.217 514.025 236.61 513.432 236.162 512.676C235.714 511.911 235.49 511.047 235.49 510.086C235.49 509.134 235.714 508.28 236.162 507.524C236.61 506.759 237.217 506.161 237.982 505.732C238.747 505.303 239.587 505.088 240.502 505.088C241.426 505.088 242.266 505.303 243.022 505.732C243.787 506.161 244.389 506.759 244.828 507.524C245.276 508.28 245.5 509.134 245.5 510.086C245.5 511.047 245.276 511.911 244.828 512.676C244.389 513.432 243.787 514.025 243.022 514.454C242.257 514.883 241.417 515.098 240.502 515.098ZM240.502 513.348C241.09 513.348 241.608 513.217 242.056 512.956C242.504 512.685 242.854 512.303 243.106 511.808C243.358 511.313 243.484 510.739 243.484 510.086C243.484 509.433 243.358 508.863 243.106 508.378C242.854 507.883 242.504 507.505 242.056 507.244C241.608 506.983 241.09 506.852 240.502 506.852C239.914 506.852 239.391 506.983 238.934 507.244C238.486 507.505 238.136 507.883 237.884 508.378C237.632 508.863 237.506 509.433 237.506 510.086C237.506 510.739 237.632 511.313 237.884 511.808C238.136 512.303 238.486 512.685 238.934 512.956C239.391 513.217 239.914 513.348 240.502 513.348ZM254.28 507.244V515H252.306V514.02C252.054 514.356 251.723 514.622 251.312 514.818C250.911 515.005 250.472 515.098 249.996 515.098C249.39 515.098 248.853 514.972 248.386 514.72C247.92 514.459 247.551 514.081 247.28 513.586C247.019 513.082 246.888 512.485 246.888 511.794V507.244H248.848V511.514C248.848 512.13 249.002 512.606 249.31 512.942C249.618 513.269 250.038 513.432 250.57 513.432C251.112 513.432 251.536 513.269 251.844 512.942C252.152 512.606 252.306 512.13 252.306 511.514V507.244H254.28ZM258.496 508.854V512.606C258.496 512.867 258.557 513.059 258.678 513.18C258.809 513.292 259.023 513.348 259.322 513.348H260.232V515H259C257.348 515 256.522 514.197 256.522 512.592V508.854H255.598V507.244H256.522V505.326H258.496V507.244H260.232V508.854H258.496ZM263.602 508.364C263.854 508.009 264.199 507.715 264.638 507.482C265.086 507.239 265.594 507.118 266.164 507.118C266.826 507.118 267.424 507.281 267.956 507.608C268.497 507.935 268.922 508.401 269.23 509.008C269.547 509.605 269.706 510.301 269.706 511.094C269.706 511.887 269.547 512.592 269.23 513.208C268.922 513.815 268.497 514.286 267.956 514.622C267.424 514.958 266.826 515.126 266.164 515.126C265.594 515.126 265.09 515.009 264.652 514.776C264.222 514.543 263.872 514.249 263.602 513.894V518.696H261.642V507.244H263.602V508.364ZM267.704 511.094C267.704 510.627 267.606 510.226 267.41 509.89C267.223 509.545 266.971 509.283 266.654 509.106C266.346 508.929 266.01 508.84 265.646 508.84C265.291 508.84 264.955 508.933 264.638 509.12C264.33 509.297 264.078 509.559 263.882 509.904C263.695 510.249 263.602 510.655 263.602 511.122C263.602 511.589 263.695 511.995 263.882 512.34C264.078 512.685 264.33 512.951 264.638 513.138C264.955 513.315 265.291 513.404 265.646 513.404C266.01 513.404 266.346 513.311 266.654 513.124C266.971 512.937 267.223 512.671 267.41 512.326C267.606 511.981 267.704 511.57 267.704 511.094ZM278.452 507.244V515H276.478V514.02C276.226 514.356 275.895 514.622 275.484 514.818C275.083 515.005 274.644 515.098 274.168 515.098C273.561 515.098 273.025 514.972 272.558 514.72C272.091 514.459 271.723 514.081 271.452 513.586C271.191 513.082 271.06 512.485 271.06 511.794V507.244H273.02V511.514C273.02 512.13 273.174 512.606 273.482 512.942C273.79 513.269 274.21 513.432 274.742 513.432C275.283 513.432 275.708 513.269 276.016 512.942C276.324 512.606 276.478 512.13 276.478 511.514V507.244H278.452ZM282.668 508.854V512.606C282.668 512.867 282.729 513.059 282.85 513.18C282.981 513.292 283.195 513.348 283.494 513.348H284.404V515H283.172C281.52 515 280.694 514.197 280.694 512.592V508.854H279.77V507.244H280.694V505.326H282.668V507.244H284.404V508.854H282.668Z" fill="#6941C6"/>
<path d="M291 510C291 505.582 294.582 502 299 502C303.418 502 307 505.582 307 510C307 514.418 303.418 518 299 518C294.582 518 291 514.418 291 510Z" fill="#7F56D9"/>
<path d="M296 510C296 508.343 297.343 507 299 507C300.657 507 302 508.343 302 510C302 511.657 300.657 513 299 513C297.343 513 296 511.657 296 510Z" fill="white"/>
</g>
</g>
<defs>
<filter id="filter0_d_1_20595" x="249" y="624" width="216" height="88" filterUnits="userSpaceOnUse" color-interpolation-filters="sRGB">
<feFlood flood-opacity="0" result="BackgroundImageFix"/>
<feColorMatrix in="SourceAlpha" type="matrix" values="0 0 0 0 0 0 0 0 0 0 0 0 0 0 0 0 0 0 127 0" result="hardAlpha"/>
<feOffset dy="8"/>
<feGaussianBlur stdDeviation="8"/>
<feColorMatrix type="matrix" values="0 0 0 0 0 0 0 0 0 0 0 0 0 0 0 0 0 0 0.05 0"/>
<feBlend mode="normal" in2="BackgroundImageFix" result="effect1_dropShadow_1_20595"/>
<feBlend mode="normal" in="SourceGraphic" in2="effect1_dropShadow_1_20595" result="shape"/>
</filter>
<filter id="filter1_d_1_20595" x="386" y="23" width="373" height="501" filterUnits="userSpaceOnUse" color-interpolation-filters="sRGB">
<feFlood flood-opacity="0" result="BackgroundImageFix"/>
<feColorMatrix in="SourceAlpha" type="matrix" values="0 0 0 0 0 0 0 0 0 0 0 0 0 0 0 0 0 0 127 0" result="hardAlpha"/>
<feMorphology radius="12" operator="erode" in="SourceAlpha" result="effect1_dropShadow_1_20595"/>
<feOffset dy="32"/>
<feGaussianBlur stdDeviation="32"/>
<feComposite in2="hardAlpha" operator="out"/>
<feColorMatrix type="matrix" values="0 0 0 0 0.0627451 0 0 0 0 0.0941176 0 0 0 0 0.156863 0 0 0 0.14 0"/>
<feBlend mode="normal" in2="BackgroundImageFix" result="effect1_dropShadow_1_20595"/>
<feBlend mode="normal" in="SourceGraphic" in2="effect1_dropShadow_1_20595" result="shape"/>
</filter>
<filter id="filter2_d_1_20595" x="460" y="140" width="225" height="92" filterUnits="userSpaceOnUse" color-interpolation-filters="sRGB">
<feFlood flood-opacity="0" result="BackgroundImageFix"/>
<feColorMatrix in="SourceAlpha" type="matrix" values="0 0 0 0 0 0 0 0 0 0 0 0 0 0 0 0 0 0 127 0" result="hardAlpha"/>
<feOffset dy="1"/>
<feGaussianBlur stdDeviation="1"/>
<feComposite in2="hardAlpha" operator="out"/>
<feColorMatrix type="matrix" values="0 0 0 0 0.0627451 0 0 0 0 0.0941176 0 0 0 0 0.156863 0 0 0 0.05 0"/>
<feBlend mode="normal" in2="BackgroundImageFix" result="effect1_dropShadow_1_20595"/>
<feBlend mode="normal" in="SourceGraphic" in2="effect1_dropShadow_1_20595" result="shape"/>
</filter>
<filter id="filter3_d_1_20595" x="0" y="137" width="373" height="501" filterUnits="userSpaceOnUse" color-interpolation-filters="sRGB">
<feFlood flood-opacity="0" result="BackgroundImageFix"/>
<feColorMatrix in="SourceAlpha" type="matrix" values="0 0 0 0 0 0 0 0 0 0 0 0 0 0 0 0 0 0 127 0" result="hardAlpha"/>
<feMorphology radius="12" operator="erode" in="SourceAlpha" result="effect1_dropShadow_1_20595"/>
<feOffset dy="32"/>
<feGaussianBlur stdDeviation="32"/>
<feComposite in2="hardAlpha" operator="out"/>
<feColorMatrix type="matrix" values="0 0 0 0 0.0627451 0 0 0 0 0.0941176 0 0 0 0 0.156863 0 0 0 0.14 0"/>
<feBlend mode="normal" in2="BackgroundImageFix" result="effect1_dropShadow_1_20595"/>
<feBlend mode="normal" in="SourceGraphic" in2="effect1_dropShadow_1_20595" result="shape"/>
</filter>
<filter id="filter4_d_1_20595" x="74" y="254" width="225" height="92" filterUnits="userSpaceOnUse" color-interpolation-filters="sRGB">
<feFlood flood-opacity="0" result="BackgroundImageFix"/>
<feColorMatrix in="SourceAlpha" type="matrix" values="0 0 0 0 0 0 0 0 0 0 0 0 0 0 0 0 0 0 127 0" result="hardAlpha"/>
<feOffset dy="1"/>
<feGaussianBlur stdDeviation="1"/>
<feComposite in2="hardAlpha" operator="out"/>
<feColorMatrix type="matrix" values="0 0 0 0 0.0627451 0 0 0 0 0.0941176 0 0 0 0 0.156863 0 0 0 0.05 0"/>
<feBlend mode="normal" in2="BackgroundImageFix" result="effect1_dropShadow_1_20595"/>
<feBlend mode="normal" in="SourceGraphic" in2="effect1_dropShadow_1_20595" result="shape"/>
</filter>
<clipPath id="clip0_1_20595">
<path d="M438 55C438 48.3726 443.373 43 450 43H695C701.627 43 707 48.3726 707 55V428C707 434.627 701.627 440 695 440H450C443.373 440 438 434.627 438 428V55Z" fill="white"/>
</clipPath>
<clipPath id="clip1_1_20595">
<rect width="16" height="16" fill="white" transform="translate(568 117)"/>
</clipPath>
<clipPath id="clip2_1_20595">
<path d="M52 169C52 162.373 57.3726 157 64 157H309C315.627 157 321 162.373 321 169V542C321 548.627 315.627 554 309 554H64C57.3726 554 52 548.627 52 542V169Z" fill="white"/>
</clipPath>
<clipPath id="clip3_1_20595">
<rect width="16" height="16" fill="white" transform="translate(182 231)"/>
</clipPath>
</defs>
</svg>
